<svg width="277" height="59" viewBox="0 0 277 59" fill="none" xmlns="http://www.w3.org/2000/svg">
<path fill-rule="evenodd" clip-rule="evenodd" d="M36.9262 20.8813C37.0569 25.4783 37.6449 27.2296 39.3686 31.4103C39.8951 32.6883 40.878 34.8724 41.1643 36.0731C41.3949 37.04 41.4766 37.9973 41.4583 39.0289C41.4506 39.4945 41.3171 41.7085 41.1903 42.0079C41.0567 41.9249 41.0288 41.5327 40.9885 41.3704C40.9308 41.1386 40.8722 40.899 40.8107 40.6797C40.438 39.3419 40.0114 38.1025 39.5262 36.8091C38.8949 35.1254 38.2272 33.5065 37.5536 31.8846C36.2806 28.8186 35.4188 26.9205 36.0356 23.443C36.1211 22.962 36.2277 22.5215 36.3728 22.0694C36.4468 21.8386 36.5073 21.6618 36.6025 21.4309L36.7956 20.9895C36.883 20.8475 36.7927 20.918 36.9262 20.8803V20.8813ZM0.00192159 9.87701V8.55171C0.00864716 8.44062 0.0182551 8.33823 0.0307454 8.24743L0.0807068 5.75716L1.68523 5.22588C1.84569 5.17275 1.94753 5.12446 2.08973 5.07712L7.19444 3.37992C8.55396 2.92302 9.89235 2.56368 11.2221 2.14928C13.4348 1.45958 17.5816 0.541912 19.8692 0.281101C21.0779 0.143934 22.5489 -0.000961163 23.7758 4.80344e-06C24.655 0.00097077 26.4641 0.0212561 27.3077 0.141036C27.4509 0.161321 27.6382 0.186436 27.7478 0.198028L28.2762 2.02564C28.7768 4.13337 28.9074 6.31743 28.7182 8.49665C28.2916 13.4134 26.3296 18.4538 24.0602 22.6394C23.4991 23.6749 22.963 24.6737 22.3625 25.657C22.154 25.999 20.6408 28.4661 20.6215 28.6168C20.7253 28.5772 21.1692 28.0778 21.2643 27.9667L22.1896 26.9505C22.5825 26.4791 23.3694 25.6851 23.773 25.2079L25.6138 23.0876C27.1482 21.2658 28.7172 19.2942 30.0258 16.9228C32.716 12.0495 33.2003 7.37902 30.8377 2.22946C30.6955 1.91841 30.5466 1.64311 30.4053 1.35332C30.2641 1.06353 30.0316 0.735105 29.9384 0.474294C30.0959 0.478158 30.3659 0.542878 30.5456 0.576687L32.3231 0.934094C34.1563 1.3398 35.6167 1.76386 37.3759 2.28645L38.7249 2.7163C38.819 2.74818 38.8498 2.76943 38.9574 2.80034C40.2881 3.19252 41.8484 3.77597 43.181 4.2319L47.1558 5.59585C47.2356 5.62483 47.3201 5.64028 47.3922 5.67506C47.3922 6.66807 47.3922 7.66012 47.3922 8.65313L47.1558 15.8003C47.1587 16.093 47.1193 16.2186 47.1174 16.5161C47.1145 16.9778 46.9598 18.0752 46.9589 18.5794C46.9579 19.0122 46.8666 19.498 46.8407 19.9289C46.8272 20.1462 46.7878 20.4118 46.7677 20.6099C46.7417 20.8581 46.7408 21.0262 46.7148 21.2715L46.2354 25.1972C46.1777 25.6 46.1182 26.0685 46.05 26.48L44.9345 32.7434C44.2706 36.1049 43.2492 39.8529 41.9262 43.0203C41.8465 43.2115 41.7773 43.3603 41.7004 43.5477C41.5717 43.8616 40.6791 45.8486 40.5148 46.0148C40.5715 45.0788 40.6503 44.3987 40.5715 43.425C40.3966 41.2555 39.6684 38.9594 38.916 36.9859C38.7902 36.6546 35.8895 29.5789 35.7425 29.4156L35.8117 31.0887C35.8674 31.6364 35.9376 32.1899 36.0212 32.7173C36.8667 38.0079 39.2225 42.857 36.711 47.9419C35.8309 49.7231 35.0373 50.8842 33.7066 52.1873C31.2931 54.5501 27.3087 56.142 22.7478 54.8717C20.7647 54.3192 19.3139 53.4006 18.0043 52.3737L17.0455 51.5102C16.9081 51.3469 16.738 51.2252 16.5891 51.0562C16.1394 50.5452 15.782 50.124 15.3602 49.5521C15.1815 49.3087 14.7386 48.5591 14.6147 48.5195C14.7376 49.5483 15.8262 51.3952 16.4661 52.2115C18.8902 55.3006 22.6517 57.4905 26.6313 57.9899C26.8389 58.0159 27.0983 58.0121 27.2155 58.0845L25.267 58.7114C24.6415 58.8824 23.8719 59.1152 23.0869 58.9346C22.4403 58.7849 20.9799 58.1773 20.3275 57.8971C20.0105 57.7609 19.7741 57.6363 19.458 57.5001C18.6221 57.1408 16.9292 56.1304 16.2077 55.6464L14.3841 54.3037C14.017 54.0014 13.7173 53.7792 13.3589 53.4286C13.2715 53.3426 13.2503 53.3426 13.1629 53.2692C13.0995 53.2161 13.061 53.1716 13.0034 53.1127C12.6594 52.7621 12.1089 52.3061 11.7198 51.8618L11.4229 51.5247C10.8455 50.9528 9.57048 49.2981 9.16214 48.7156C8.47614 47.7381 8.02264 47.0319 7.4231 45.9781L6.75247 44.7474C6.31242 43.9872 5.47173 42.121 5.14025 41.2854C4.5657 39.8365 4.29475 39.0965 3.77689 37.5346C3.45694 36.5705 3.13988 35.0453 2.88335 33.9866C2.0023 30.3613 1.36817 26.3351 0.852225 22.6084C0.766715 21.9931 0.279591 17.5564 0.276709 16.8339L0.196002 15.6438C0.187355 14.6141 0.0393926 13.14 0.0393926 11.9896C0.0393926 11.5839 0.0605301 11.1173 0.0393926 10.7184C0.0269023 10.4807 0.0105687 10.1861 0 9.87605L0.00192159 9.87701ZM22.0627 32.8912C22.3308 32.2816 26.0087 29.6677 26.7706 29.1364C27.9322 28.327 28.9286 27.6141 30.0373 26.7437C30.2891 26.5457 30.5542 26.3293 30.7992 26.1197L32.2712 24.7809C32.8525 24.2226 33.6202 23.3812 34.1217 22.7118C34.2283 22.5698 34.1716 22.5843 34.3369 22.5244C34.0477 27.9164 30.0604 29.5885 26.0558 31.1978C25.0133 31.617 24.0804 31.9774 23.062 32.4372C22.7929 32.5589 22.3241 32.8206 22.0608 32.8912H22.0627ZM13.626 44.2731C13.5703 44.1823 13.5693 44.021 13.5626 43.909C13.283 38.912 15.4707 35.3727 18.4799 31.7214L22.5431 27.3881C23.1734 26.7582 23.7806 26.1642 24.4109 25.5334L28.8998 20.7953C29.1765 20.4485 29.4637 20.1462 29.7549 19.7888C31.5179 17.6202 32.7679 15.3772 33.6259 12.5238C33.917 11.5549 34.1726 10.5561 34.3513 9.52057C34.5108 8.59904 34.6645 7.5925 34.7452 6.65068L34.7837 6.34544C34.8183 6.2614 34.7779 6.32612 34.8327 6.27106C35.0873 6.6275 35.6945 8.57006 35.8492 9.14191C37.1213 13.8529 36.5717 17.5854 33.7479 21.3817C33.2502 22.0511 32.0752 23.3609 31.4372 23.9415L29.8721 25.345C29.5118 25.6319 29.1755 25.9207 28.8104 26.2231C27.104 27.6334 25.0854 29.1046 23.3166 30.5062C22.9476 30.7979 22.6152 31.0867 22.2472 31.3765L20.6936 32.7134C17.6738 35.5418 15.194 38.4725 14.0247 42.687C13.9671 42.8947 13.6923 44.2113 13.627 44.2731H13.626ZM39.334 26.5216L39.3571 28.95C39.2783 28.9056 39.3033 28.9973 39.1812 28.7018C39.1418 28.6061 39.089 28.496 39.0477 28.3984L38.3636 26.4994C36.9973 21.912 37.4057 16.7518 41.2642 13.6906C42.3567 12.8242 44.677 11.7375 46.0509 11.6302C46.0192 11.7887 45.5801 12.2156 45.436 12.3653C44.9085 12.914 44.0842 13.909 43.5394 14.5088C42.8755 15.2401 41.7024 16.7846 41.2316 17.5883C39.5531 20.4582 39.3302 23.0856 39.333 26.5206L39.334 26.5216Z" fill="white"/>
<path d="M60.4843 25.4464C59.572 25.4464 58.7071 25.3274 57.8896 25.0894C57.0839 24.8395 56.4263 24.5063 55.9169 24.0898C55.6443 23.8876 55.5081 23.602 55.5081 23.2331C55.5081 22.9832 55.5792 22.769 55.7214 22.5906C55.8754 22.4002 56.0531 22.305 56.2545 22.305C56.4678 22.305 56.7107 22.3883 56.9832 22.5549C57.4926 22.9237 58.0258 23.1915 58.5827 23.358C59.1395 23.5246 59.7556 23.6079 60.431 23.6079C61.2959 23.6079 61.9594 23.4592 62.4214 23.1617C62.8835 22.8523 63.1145 22.4061 63.1145 21.8231C63.1145 21.3709 62.8954 21.0258 62.457 20.7878C62.0304 20.538 61.3136 20.3 60.3066 20.0739C59.2639 19.8478 58.4168 19.586 57.7651 19.2885C57.1135 18.9911 56.6218 18.6103 56.2901 18.1462C55.9583 17.6821 55.7924 17.0931 55.7924 16.3792C55.7924 15.6414 55.9998 14.981 56.4145 14.398C56.8292 13.8149 57.4038 13.3628 58.1384 13.0415C58.8848 12.7083 59.7201 12.5417 60.6442 12.5417C62.3385 12.5417 63.7188 12.9939 64.7851 13.8982C64.9391 14.0291 65.0458 14.16 65.105 14.2909C65.1761 14.4099 65.2116 14.5646 65.2116 14.755C65.2116 15.0048 65.1346 15.225 64.9806 15.4154C64.8384 15.5938 64.6666 15.6831 64.4652 15.6831C64.3467 15.6831 64.2342 15.6652 64.1275 15.6295C64.0328 15.5938 63.9024 15.5284 63.7366 15.4332C63.2508 15.0762 62.7769 14.8145 62.3148 14.6479C61.8646 14.4694 61.3077 14.3801 60.6442 14.3801C59.8386 14.3801 59.1988 14.5467 58.7248 14.8799C58.2628 15.2012 58.0317 15.6533 58.0317 16.2364C58.0317 16.7243 58.2391 17.0991 58.6538 17.3609C59.0684 17.6227 59.7734 17.8666 60.7686 18.0927C61.8231 18.3307 62.6762 18.5984 63.3278 18.8959C63.9913 19.1814 64.4948 19.5503 64.8384 20.0025C65.1939 20.4547 65.3716 21.0199 65.3716 21.6981C65.3716 22.4359 65.1643 23.0903 64.7496 23.6615C64.3467 24.2207 63.7721 24.661 63.0257 24.9823C62.2911 25.2917 61.444 25.4464 60.4843 25.4464Z" fill="white"/>
<path d="M68.032 25.3928C67.7121 25.3928 67.4455 25.3036 67.2322 25.1251C67.0308 24.9347 66.9301 24.667 66.9301 24.3219V17.4323C66.9301 17.0872 67.0308 16.8254 67.2322 16.6469C67.4455 16.4684 67.7121 16.3792 68.032 16.3792C68.3519 16.3792 68.6185 16.4684 68.8317 16.6469C69.045 16.8254 69.1516 17.0872 69.1516 17.4323V24.3219C69.1516 24.667 69.045 24.9347 68.8317 25.1251C68.6185 25.3036 68.3519 25.3928 68.032 25.3928ZM68.032 14.7907C67.6292 14.7907 67.3093 14.6836 67.0723 14.4694C66.8353 14.2433 66.7169 13.9518 66.7169 13.5948C66.7169 13.2378 66.8353 12.9522 67.0723 12.7381C67.3093 12.5239 67.6292 12.4168 68.032 12.4168C68.423 12.4168 68.7369 12.5239 68.9739 12.7381C69.2227 12.9522 69.3471 13.2378 69.3471 13.5948C69.3471 13.9518 69.2286 14.2433 68.9917 14.4694C68.7547 14.6836 68.4348 14.7907 68.032 14.7907Z" fill="white"/>
<path d="M74.2328 25.4285C72.9413 25.4285 71.8987 25.1727 71.1049 24.661C70.7258 24.4349 70.5362 24.1136 70.5362 23.6972C70.5362 23.4592 70.6013 23.2688 70.7317 23.126C70.862 22.9713 71.0219 22.894 71.2115 22.894C71.4129 22.894 71.6914 22.9892 72.0468 23.1796C72.4259 23.358 72.7695 23.4949 73.0776 23.5901C73.3975 23.6853 73.8003 23.7329 74.2861 23.7329C74.7837 23.7329 75.1688 23.6496 75.4413 23.483C75.7256 23.3164 75.8678 23.0844 75.8678 22.7869C75.8678 22.5846 75.8086 22.424 75.6901 22.305C75.5835 22.186 75.382 22.0789 75.0858 21.9837C74.8015 21.8766 74.3631 21.7576 73.7707 21.6267C72.7162 21.4125 71.9579 21.1091 71.4959 20.7164C71.0456 20.3238 70.8205 19.7824 70.8205 19.0922C70.8205 18.5686 70.9746 18.0986 71.2826 17.6821C71.5907 17.2538 72.0113 16.9266 72.5444 16.7005C73.0894 16.4625 73.7055 16.3435 74.3927 16.3435C74.8903 16.3435 75.3702 16.4089 75.8323 16.5398C76.2943 16.6588 76.709 16.8373 77.0763 17.0753C77.4554 17.3133 77.645 17.6286 77.645 18.0213C77.645 18.2593 77.5798 18.4615 77.4495 18.6281C77.3192 18.7828 77.1592 18.8602 76.9697 18.8602C76.8393 18.8602 76.709 18.8364 76.5787 18.7888C76.4602 18.7293 76.3062 18.646 76.1166 18.5389C75.773 18.3604 75.4768 18.2295 75.228 18.1462C74.9792 18.051 74.6712 18.0034 74.3039 18.0034C73.8655 18.0034 73.516 18.0927 73.2553 18.2712C73.0065 18.4496 72.8821 18.6936 72.8821 19.003C72.8821 19.3004 73.0124 19.5265 73.2731 19.6812C73.5337 19.8359 74.0373 19.9906 74.7837 20.1453C75.5775 20.3119 76.1996 20.5023 76.6498 20.7164C77.1 20.9306 77.4199 21.1984 77.6095 21.5196C77.8109 21.8409 77.9116 22.2514 77.9116 22.7512C77.9116 23.5603 77.5739 24.2088 76.8986 24.6967C76.2351 25.1846 75.3465 25.4285 74.2328 25.4285Z" fill="white"/>
<path d="M83.7847 23.7329C84.3771 23.7686 84.6733 24.0363 84.6733 24.5361C84.6733 24.8216 84.5548 25.0418 84.3179 25.1965C84.0928 25.3393 83.7669 25.3988 83.3404 25.375L82.8606 25.3393C80.8701 25.1965 79.8749 24.1255 79.8749 22.1265V18.2355H78.9863C78.6664 18.2355 78.4175 18.1641 78.2398 18.0213C78.0739 17.8785 77.991 17.6702 77.991 17.3966C77.991 17.1229 78.0739 16.9147 78.2398 16.7719C78.4175 16.6291 78.6664 16.5577 78.9863 16.5577H79.8749V14.9156C79.8749 14.5943 79.9756 14.3385 80.177 14.1481C80.3784 13.9577 80.6509 13.8625 80.9945 13.8625C81.3262 13.8625 81.5928 13.9577 81.7942 14.1481C81.9957 14.3385 82.0964 14.5943 82.0964 14.9156V16.5577H83.607C83.9269 16.5577 84.1698 16.6291 84.3356 16.7719C84.5134 16.9147 84.6022 17.1229 84.6022 17.3966C84.6022 17.6702 84.5134 17.8785 84.3356 18.0213C84.1698 18.1641 83.9269 18.2355 83.607 18.2355H82.0964V22.2871C82.0964 23.1677 82.4992 23.6377 83.3049 23.6972L83.7847 23.7329Z" fill="white"/>
<path d="M92.3533 22.894C92.5548 22.894 92.7147 22.9713 92.8332 23.126C92.9635 23.2807 93.0287 23.4889 93.0287 23.7507C93.0287 24.1196 92.8095 24.429 92.3711 24.6789C91.9683 24.9049 91.5121 25.0894 91.0027 25.2322C90.4932 25.3631 90.0074 25.4285 89.5454 25.4285C88.1473 25.4285 87.0395 25.0239 86.222 24.2148C85.4045 23.4056 84.9957 22.299 84.9957 20.8949C84.9957 20.0025 85.1734 19.2112 85.5289 18.521C85.8843 17.8309 86.3819 17.2954 87.0217 16.9147C87.6734 16.5339 88.4079 16.3435 89.2255 16.3435C90.0074 16.3435 90.6887 16.516 91.2692 16.8611C91.8498 17.2062 92.3 17.694 92.6199 18.3247C92.9398 18.9554 93.0998 19.6991 93.0998 20.5558C93.0998 21.0675 92.8747 21.3233 92.4244 21.3233H87.1817C87.2528 22.1443 87.4838 22.7512 87.8748 23.1439C88.2658 23.5246 88.8345 23.715 89.5809 23.715C89.96 23.715 90.2918 23.6674 90.5761 23.5722C90.8723 23.477 91.2041 23.3462 91.5714 23.1796C91.9268 22.9892 92.1875 22.894 92.3533 22.894ZM89.2788 17.9142C88.6745 17.9142 88.1888 18.1046 87.8215 18.4853C87.466 18.8661 87.2528 19.4135 87.1817 20.1274H91.1982C91.1745 19.4016 90.9967 18.8542 90.665 18.4853C90.3333 18.1046 89.8712 17.9142 89.2788 17.9142Z" fill="white"/>
<path d="M104.887 16.3435C105.835 16.3435 106.558 16.6291 107.055 17.2002C107.565 17.7595 107.819 18.6698 107.819 19.9311V24.3219C107.819 24.667 107.713 24.9347 107.5 25.1251C107.298 25.3036 107.032 25.3928 106.7 25.3928C106.38 25.3928 106.113 25.3036 105.9 25.1251C105.699 24.9347 105.598 24.667 105.598 24.3219V19.9311C105.598 19.2766 105.479 18.8126 105.243 18.5389C105.017 18.2533 104.668 18.1105 104.194 18.1105C103.613 18.1105 103.151 18.3128 102.808 18.7174C102.464 19.1101 102.292 19.6515 102.292 20.3416V24.3219C102.292 24.667 102.186 24.9347 101.972 25.1251C101.771 25.3036 101.51 25.3928 101.191 25.3928C100.871 25.3928 100.604 25.3036 100.391 25.1251C100.177 24.9347 100.071 24.667 100.071 24.3219V19.9311C100.071 19.2766 99.9524 18.8126 99.7154 18.5389C99.4903 18.2533 99.1408 18.1105 98.6669 18.1105C98.0863 18.1105 97.6242 18.3128 97.2806 18.7174C96.9489 19.1101 96.783 19.6515 96.783 20.3416V24.3219C96.783 24.667 96.6764 24.9347 96.4631 25.1251C96.2499 25.3036 95.9833 25.3928 95.6634 25.3928C95.3435 25.3928 95.0769 25.3036 94.8636 25.1251C94.6622 24.9347 94.5615 24.667 94.5615 24.3219V17.4144C94.5615 17.0812 94.6682 16.8254 94.8814 16.6469C95.0947 16.4684 95.3613 16.3792 95.6812 16.3792C95.9892 16.3792 96.238 16.4684 96.4276 16.6469C96.629 16.8135 96.7297 17.0574 96.7297 17.3787V17.8071C97.0022 17.3311 97.3636 16.9682 97.8138 16.7183C98.2759 16.4684 98.8031 16.3435 99.3955 16.3435C100.699 16.3435 101.57 16.8909 102.008 17.9856C102.269 17.4858 102.654 17.0872 103.163 16.7897C103.673 16.4922 104.247 16.3435 104.887 16.3435Z" fill="white"/>
<path d="M115.524 25.3928C115.181 25.3928 114.902 25.2857 114.689 25.0715C114.488 24.8573 114.387 24.5777 114.387 24.2326V13.7554C114.387 13.4104 114.488 13.1367 114.689 12.9344C114.902 12.7202 115.181 12.6131 115.524 12.6131C115.88 12.6131 116.158 12.7202 116.36 12.9344C116.573 13.1367 116.679 13.4104 116.679 13.7554V24.2326C116.679 24.5777 116.573 24.8573 116.36 25.0715C116.158 25.2857 115.88 25.3928 115.524 25.3928Z" fill="white"/>
<path d="M123.882 16.3435C124.924 16.3435 125.7 16.641 126.21 17.2359C126.719 17.8309 126.974 18.7293 126.974 19.9311V24.3219C126.974 24.6551 126.873 24.9168 126.672 25.1072C126.482 25.2976 126.216 25.3928 125.872 25.3928C125.528 25.3928 125.256 25.2976 125.055 25.1072C124.853 24.9168 124.752 24.6551 124.752 24.3219V20.056C124.752 19.3778 124.622 18.884 124.361 18.5746C124.113 18.2652 123.716 18.1105 123.171 18.1105C122.531 18.1105 122.015 18.3128 121.624 18.7174C121.245 19.1219 121.056 19.6634 121.056 20.3416V24.3219C121.056 24.6551 120.955 24.9168 120.754 25.1072C120.552 25.2976 120.28 25.3928 119.936 25.3928C119.593 25.3928 119.32 25.2976 119.119 25.1072C118.929 24.9168 118.834 24.6551 118.834 24.3219V17.4144C118.834 17.105 118.935 16.8552 119.136 16.6648C119.338 16.4744 119.61 16.3792 119.954 16.3792C120.262 16.3792 120.511 16.4744 120.7 16.6648C120.902 16.8433 121.002 17.0812 121.002 17.3787V17.8606C121.299 17.3728 121.696 16.9979 122.193 16.7362C122.691 16.4744 123.254 16.3435 123.882 16.3435Z" fill="white"/>
<path d="M133.265 14.3623C132.719 14.398 132.323 14.5646 132.074 14.862C131.825 15.1595 131.701 15.5879 131.701 16.1472V16.5577H133.211C133.875 16.5577 134.206 16.8373 134.206 17.3966C134.206 17.9558 133.875 18.2355 133.211 18.2355H131.701V24.3219C131.701 24.667 131.594 24.9287 131.381 25.1072C131.179 25.2857 130.919 25.375 130.599 25.375C130.279 25.375 130.012 25.2857 129.799 25.1072C129.586 24.9287 129.479 24.667 129.479 24.3219V18.2355H128.59C127.927 18.2355 127.595 17.9558 127.595 17.3966C127.595 16.8373 127.927 16.5577 128.59 16.5577H129.479V16.4327C129.479 15.3142 129.769 14.4396 130.35 13.809C130.942 13.1664 131.772 12.8035 132.838 12.7202L133.3 12.6845C133.774 12.6488 134.106 12.7024 134.295 12.8451C134.497 12.976 134.597 13.1843 134.597 13.4698C134.597 13.9815 134.307 14.2671 133.727 14.3266L133.265 14.3623Z" fill="white"/>
<path d="M138.765 25.4285C137.877 25.4285 137.095 25.2441 136.419 24.8752C135.756 24.5063 135.24 23.9768 134.873 23.2867C134.506 22.5965 134.322 21.7933 134.322 20.8771C134.322 19.9608 134.506 19.1636 134.873 18.4853C135.24 17.7952 135.756 17.2657 136.419 16.8968C137.095 16.5279 137.877 16.3435 138.765 16.3435C139.654 16.3435 140.43 16.5279 141.093 16.8968C141.769 17.2657 142.284 17.7952 142.64 18.4853C143.007 19.1636 143.19 19.9608 143.19 20.8771C143.19 21.7933 143.007 22.5965 142.64 23.2867C142.284 23.9768 141.769 24.5063 141.093 24.8752C140.43 25.2441 139.654 25.4285 138.765 25.4285ZM138.747 23.6972C139.47 23.6972 140.021 23.4592 140.4 22.9832C140.779 22.5073 140.969 21.8052 140.969 20.8771C140.969 19.9608 140.779 19.2647 140.4 18.7888C140.021 18.3009 139.476 18.057 138.765 18.057C138.054 18.057 137.503 18.3009 137.112 18.7888C136.733 19.2647 136.544 19.9608 136.544 20.8771C136.544 21.8052 136.733 22.5073 137.112 22.9832C137.492 23.4592 138.037 23.6972 138.747 23.6972Z" fill="white"/>
<path d="M149.521 16.3792C149.829 16.3554 150.072 16.4208 150.249 16.5755C150.427 16.7302 150.516 16.9623 150.516 17.2716C150.516 17.5929 150.439 17.8309 150.285 17.9856C150.131 18.1403 149.853 18.2414 149.45 18.289L148.917 18.3426C148.218 18.4139 147.702 18.6519 147.37 19.0565C147.05 19.4611 146.891 19.9668 146.891 20.5736V24.3219C146.891 24.667 146.784 24.9347 146.571 25.1251C146.357 25.3036 146.091 25.3928 145.771 25.3928C145.451 25.3928 145.184 25.3036 144.971 25.1251C144.77 24.9347 144.669 24.667 144.669 24.3219V17.4144C144.669 17.0812 144.77 16.8254 144.971 16.6469C145.184 16.4684 145.445 16.3792 145.753 16.3792C146.061 16.3792 146.31 16.4684 146.5 16.6469C146.689 16.8135 146.784 17.0574 146.784 17.3787V18.0927C147.009 17.5691 147.341 17.1645 147.779 16.879C148.229 16.5934 148.727 16.4327 149.272 16.397L149.521 16.3792Z" fill="white"/>
<path d="M161.443 16.3435C162.39 16.3435 163.113 16.6291 163.611 17.2002C164.12 17.7595 164.375 18.6698 164.375 19.9311V24.3219C164.375 24.667 164.268 24.9347 164.055 25.1251C163.854 25.3036 163.587 25.3928 163.255 25.3928C162.935 25.3928 162.669 25.3036 162.456 25.1251C162.254 24.9347 162.153 24.667 162.153 24.3219V19.9311C162.153 19.2766 162.035 18.8126 161.798 18.5389C161.573 18.2533 161.223 18.1105 160.749 18.1105C160.169 18.1105 159.707 18.3128 159.363 18.7174C159.02 19.1101 158.848 19.6515 158.848 20.3416V24.3219C158.848 24.667 158.741 24.9347 158.528 25.1251C158.327 25.3036 158.066 25.3928 157.746 25.3928C157.426 25.3928 157.159 25.3036 156.946 25.1251C156.733 24.9347 156.626 24.667 156.626 24.3219V19.9311C156.626 19.2766 156.508 18.8126 156.271 18.5389C156.046 18.2533 155.696 18.1105 155.222 18.1105C154.642 18.1105 154.18 18.3128 153.836 18.7174C153.504 19.1101 153.338 19.6515 153.338 20.3416V24.3219C153.338 24.667 153.232 24.9347 153.019 25.1251C152.805 25.3036 152.539 25.3928 152.219 25.3928C151.899 25.3928 151.632 25.3036 151.419 25.1251C151.218 24.9347 151.117 24.667 151.117 24.3219V17.4144C151.117 17.0812 151.224 16.8254 151.437 16.6469C151.65 16.4684 151.917 16.3792 152.237 16.3792C152.545 16.3792 152.793 16.4684 152.983 16.6469C153.184 16.8135 153.285 17.0574 153.285 17.3787V17.8071C153.558 17.3311 153.919 16.9682 154.369 16.7183C154.831 16.4684 155.359 16.3435 155.951 16.3435C157.254 16.3435 158.125 16.8909 158.563 17.9856C158.824 17.4858 159.209 17.0872 159.719 16.7897C160.228 16.4922 160.803 16.3435 161.443 16.3435Z" fill="white"/>
<path d="M170.045 16.3435C171.254 16.3435 172.148 16.6469 172.729 17.2538C173.321 17.8487 173.617 18.759 173.617 19.9846V24.3397C173.617 24.661 173.522 24.9168 173.333 25.1072C173.143 25.2857 172.883 25.375 172.551 25.375C172.243 25.375 171.988 25.2798 171.787 25.0894C171.597 24.899 171.502 24.6491 171.502 24.3397V23.9471C171.301 24.4111 170.981 24.774 170.543 25.0358C170.116 25.2976 169.619 25.4285 169.05 25.4285C168.469 25.4285 167.942 25.3095 167.468 25.0715C166.994 24.8335 166.621 24.5063 166.348 24.0898C166.076 23.6734 165.94 23.2093 165.94 22.6976C165.94 22.0551 166.1 21.5494 166.42 21.1805C166.751 20.8116 167.284 20.5439 168.019 20.3773C168.754 20.2107 169.767 20.1274 171.058 20.1274H171.502V19.7169C171.502 19.1339 171.378 18.7114 171.129 18.4496C170.88 18.176 170.478 18.0391 169.921 18.0391C169.577 18.0391 169.228 18.0927 168.872 18.1998C168.517 18.295 168.096 18.4377 167.61 18.6281C167.302 18.7828 167.077 18.8602 166.935 18.8602C166.722 18.8602 166.544 18.7828 166.402 18.6281C166.271 18.4734 166.206 18.2712 166.206 18.0213C166.206 17.819 166.254 17.6465 166.348 17.5037C166.455 17.349 166.627 17.2062 166.864 17.0753C167.279 16.8492 167.77 16.6707 168.339 16.5398C168.919 16.4089 169.488 16.3435 170.045 16.3435ZM169.494 23.8221C170.087 23.8221 170.566 23.6258 170.934 23.2331C171.313 22.8285 171.502 22.3109 171.502 21.6803V21.3054H171.182C170.389 21.3054 169.773 21.3411 169.334 21.4125C168.896 21.4839 168.582 21.6089 168.392 21.7874C168.203 21.9658 168.108 22.2098 168.108 22.5192C168.108 22.8999 168.238 23.2153 168.499 23.4651C168.771 23.7031 169.103 23.8221 169.494 23.8221Z" fill="white"/>
<path d="M178.665 25.4285C177.374 25.4285 176.331 25.1727 175.537 24.661C175.158 24.4349 174.969 24.1136 174.969 23.6972C174.969 23.4592 175.034 23.2688 175.164 23.126C175.294 22.9713 175.454 22.894 175.644 22.894C175.845 22.894 176.124 22.9892 176.479 23.1796C176.858 23.358 177.202 23.4949 177.51 23.5901C177.83 23.6853 178.233 23.7329 178.719 23.7329C179.216 23.7329 179.601 23.6496 179.874 23.483C180.158 23.3164 180.3 23.0844 180.3 22.7869C180.3 22.5846 180.241 22.424 180.122 22.305C180.016 22.186 179.814 22.0789 179.518 21.9837C179.234 21.8766 178.796 21.7576 178.203 21.6267C177.149 21.4125 176.39 21.1091 175.928 20.7164C175.478 20.3238 175.253 19.7824 175.253 19.0922C175.253 18.5686 175.407 18.0986 175.715 17.6821C176.023 17.2538 176.444 16.9266 176.977 16.7005C177.522 16.4625 178.138 16.3435 178.825 16.3435C179.323 16.3435 179.803 16.4089 180.265 16.5398C180.727 16.6588 181.141 16.8373 181.509 17.0753C181.888 17.3133 182.077 17.6286 182.077 18.0213C182.077 18.2593 182.012 18.4615 181.882 18.6281C181.752 18.7828 181.592 18.8602 181.402 18.8602C181.272 18.8602 181.141 18.8364 181.011 18.7888C180.893 18.7293 180.739 18.646 180.549 18.5389C180.205 18.3604 179.909 18.2295 179.66 18.1462C179.412 18.051 179.104 18.0034 178.736 18.0034C178.298 18.0034 177.948 18.0927 177.688 18.2712C177.439 18.4496 177.315 18.6936 177.315 19.003C177.315 19.3004 177.445 19.5265 177.706 19.6812C177.966 19.8359 178.47 19.9906 179.216 20.1453C180.01 20.3119 180.632 20.5023 181.082 20.7164C181.532 20.9306 181.852 21.1984 182.042 21.5196C182.243 21.8409 182.344 22.2514 182.344 22.7512C182.344 23.5603 182.006 24.2088 181.331 24.6967C180.668 25.1846 179.779 25.4285 178.665 25.4285Z" fill="white"/>
<path d="M184.892 25.3928C184.572 25.3928 184.305 25.3036 184.092 25.1251C183.891 24.9347 183.79 24.667 183.79 24.3219V17.4323C183.79 17.0872 183.891 16.8254 184.092 16.6469C184.305 16.4684 184.572 16.3792 184.892 16.3792C185.212 16.3792 185.478 16.4684 185.691 16.6469C185.905 16.8254 186.011 17.0872 186.011 17.4323V24.3219C186.011 24.667 185.905 24.9347 185.691 25.1251C185.478 25.3036 185.212 25.3928 184.892 25.3928ZM184.892 14.7907C184.489 14.7907 184.169 14.6836 183.932 14.4694C183.695 14.2433 183.577 13.9518 183.577 13.5948C183.577 13.2378 183.695 12.9522 183.932 12.7381C184.169 12.5239 184.489 12.4168 184.892 12.4168C185.283 12.4168 185.597 12.5239 185.834 12.7381C186.082 12.9522 186.207 13.2378 186.207 13.5948C186.207 13.9518 186.088 14.2433 185.851 14.4694C185.614 14.6836 185.295 14.7907 184.892 14.7907Z" fill="white"/>
<path d="M203.968 23.9114C204.039 24.0661 204.075 24.2207 204.075 24.3754C204.075 24.6491 203.962 24.8811 203.737 25.0715C203.524 25.2619 203.275 25.3571 202.991 25.3571C202.801 25.3571 202.623 25.3095 202.457 25.2143C202.292 25.1072 202.161 24.9466 202.066 24.7324L201 22.3407H194.744L193.678 24.7324C193.583 24.9466 193.453 25.1072 193.287 25.2143C193.121 25.3095 192.938 25.3571 192.736 25.3571C192.464 25.3571 192.215 25.2619 191.99 25.0715C191.765 24.8811 191.652 24.6491 191.652 24.3754C191.652 24.2207 191.688 24.0661 191.759 23.9114L196.664 13.3271C196.77 13.0891 196.93 12.9106 197.144 12.7916C197.369 12.6607 197.606 12.5953 197.854 12.5953C198.103 12.5953 198.334 12.6607 198.548 12.7916C198.773 12.9106 198.939 13.0891 199.045 13.3271L203.968 23.9114ZM195.526 20.5558H200.218L197.872 15.2547L195.526 20.5558Z" fill="white"/>
<path d="M212.982 23.5544C213.219 23.7805 213.337 24.0363 213.337 24.3219C213.337 24.5956 213.237 24.8395 213.035 25.0537C212.846 25.2679 212.62 25.375 212.36 25.375C212.099 25.375 211.856 25.2679 211.631 25.0537L207.472 21.2697V24.3219C207.472 24.667 207.366 24.9287 207.153 25.1072C206.939 25.2857 206.673 25.375 206.353 25.375C206.033 25.375 205.766 25.2857 205.553 25.1072C205.352 24.9287 205.251 24.667 205.251 24.3219V13.6662C205.251 13.3211 205.352 13.0593 205.553 12.8808C205.766 12.7024 206.033 12.6131 206.353 12.6131C206.673 12.6131 206.939 12.7024 207.153 12.8808C207.366 13.0593 207.472 13.3211 207.472 13.6662V20.3773L211.276 16.7183C211.489 16.5041 211.732 16.397 212.004 16.397C212.277 16.397 212.514 16.4982 212.715 16.7005C212.917 16.9028 213.017 17.1407 213.017 17.4144C213.017 17.6881 212.905 17.938 212.68 18.1641L209.889 20.77L212.982 23.5544Z" fill="white"/>
<path d="M218.157 16.3435C219.365 16.3435 220.26 16.6469 220.84 17.2538C221.433 17.8487 221.729 18.759 221.729 19.9846V24.3397C221.729 24.661 221.634 24.9168 221.445 25.1072C221.255 25.2857 220.994 25.375 220.663 25.375C220.355 25.375 220.1 25.2798 219.898 25.0894C219.709 24.899 219.614 24.6491 219.614 24.3397V23.9471C219.413 24.4111 219.093 24.774 218.654 25.0358C218.228 25.2976 217.73 25.4285 217.161 25.4285C216.581 25.4285 216.054 25.3095 215.58 25.0715C215.106 24.8335 214.733 24.5063 214.46 24.0898C214.188 23.6734 214.051 23.2093 214.051 22.6976C214.051 22.0551 214.211 21.5494 214.531 21.1805C214.863 20.8116 215.396 20.5439 216.131 20.3773C216.865 20.2107 217.878 20.1274 219.17 20.1274H219.614V19.7169C219.614 19.1339 219.49 18.7114 219.241 18.4496C218.992 18.176 218.589 18.0391 218.032 18.0391C217.689 18.0391 217.339 18.0927 216.984 18.1998C216.628 18.295 216.208 18.4377 215.722 18.6281C215.414 18.7828 215.189 18.8602 215.047 18.8602C214.833 18.8602 214.656 18.7828 214.513 18.6281C214.383 18.4734 214.318 18.2712 214.318 18.0213C214.318 17.819 214.365 17.6465 214.46 17.5037C214.567 17.349 214.739 17.2062 214.975 17.0753C215.39 16.8492 215.882 16.6707 216.451 16.5398C217.031 16.4089 217.6 16.3435 218.157 16.3435ZM217.606 23.8221C218.198 23.8221 218.678 23.6258 219.045 23.2331C219.424 22.8285 219.614 22.3109 219.614 21.6803V21.3054H219.294C218.5 21.3054 217.884 21.3411 217.446 21.4125C217.007 21.4839 216.693 21.6089 216.504 21.7874C216.314 21.9658 216.22 22.2098 216.22 22.5192C216.22 22.8999 216.35 23.2153 216.611 23.4651C216.883 23.7031 217.215 23.8221 217.606 23.8221Z" fill="white"/>
<path d="M230.882 12.6131C231.214 12.6131 231.486 12.7083 231.7 12.8987C231.913 13.0891 232.02 13.339 232.02 13.6483V24.3219C232.02 24.6432 231.919 24.899 231.717 25.0894C231.516 25.2798 231.249 25.375 230.918 25.375C230.586 25.375 230.319 25.2798 230.118 25.0894C229.917 24.899 229.816 24.6432 229.816 24.3219V23.8757C229.555 24.3635 229.176 24.7443 228.678 25.018C228.193 25.2917 227.636 25.4285 227.008 25.4285C226.261 25.4285 225.592 25.2381 225 24.8573C224.419 24.4766 223.963 23.9411 223.631 23.251C223.311 22.5489 223.151 21.7457 223.151 20.8414C223.151 19.937 223.311 19.1457 223.631 18.4675C223.963 17.7892 224.419 17.2657 225 16.8968C225.58 16.5279 226.25 16.3435 227.008 16.3435C227.636 16.3435 228.193 16.4744 228.678 16.7362C229.164 16.9979 229.537 17.3668 229.798 17.8428V13.6126C229.798 13.3152 229.893 13.0772 230.082 12.8987C230.284 12.7083 230.55 12.6131 230.882 12.6131ZM227.594 23.6972C228.305 23.6972 228.85 23.4532 229.229 22.9654C229.62 22.4775 229.816 21.7814 229.816 20.8771C229.816 19.9727 229.62 19.2826 229.229 18.8066C228.85 18.3188 228.311 18.0748 227.612 18.0748C226.901 18.0748 226.35 18.3128 225.959 18.7888C225.568 19.2647 225.373 19.9489 225.373 20.8414C225.373 21.7457 225.568 22.4478 225.959 22.9475C226.35 23.4473 226.895 23.6972 227.594 23.6972Z" fill="white"/>
<path d="M240.827 22.894C241.029 22.894 241.189 22.9713 241.307 23.126C241.437 23.2807 241.503 23.4889 241.503 23.7507C241.503 24.1196 241.283 24.429 240.845 24.6789C240.442 24.9049 239.986 25.0894 239.477 25.2322C238.967 25.3631 238.481 25.4285 238.019 25.4285C236.621 25.4285 235.513 25.0239 234.696 24.2148C233.878 23.4056 233.47 22.299 233.47 20.8949C233.47 20.0025 233.647 19.2112 234.003 18.521C234.358 17.8309 234.856 17.2954 235.496 16.9147C236.147 16.5339 236.882 16.3435 237.699 16.3435C238.481 16.3435 239.163 16.516 239.743 16.8611C240.324 17.2062 240.774 17.694 241.094 18.3247C241.414 18.9554 241.574 19.6991 241.574 20.5558C241.574 21.0675 241.349 21.3233 240.898 21.3233H235.656C235.727 22.1443 235.958 22.7512 236.349 23.1439C236.74 23.5246 237.308 23.715 238.055 23.715C238.434 23.715 238.766 23.6674 239.05 23.5722C239.346 23.477 239.678 23.3462 240.045 23.1796C240.401 22.9892 240.661 22.894 240.827 22.894ZM237.753 17.9142C237.148 17.9142 236.663 18.1046 236.295 18.4853C235.94 18.8661 235.727 19.4135 235.656 20.1274H239.672C239.648 19.4016 239.471 18.8542 239.139 18.4853C238.807 18.1046 238.345 17.9142 237.753 17.9142Z" fill="white"/>
<path d="M253.361 16.3435C254.309 16.3435 255.031 16.6291 255.529 17.2002C256.039 17.7595 256.293 18.6698 256.293 19.9311V24.3219C256.293 24.667 256.187 24.9347 255.973 25.1251C255.772 25.3036 255.505 25.3928 255.174 25.3928C254.854 25.3928 254.587 25.3036 254.374 25.1251C254.173 24.9347 254.072 24.667 254.072 24.3219V19.9311C254.072 19.2766 253.953 18.8126 253.716 18.5389C253.491 18.2533 253.142 18.1105 252.668 18.1105C252.087 18.1105 251.625 18.3128 251.282 18.7174C250.938 19.1101 250.766 19.6515 250.766 20.3416V24.3219C250.766 24.667 250.66 24.9347 250.446 25.1251C250.245 25.3036 249.984 25.3928 249.664 25.3928C249.344 25.3928 249.078 25.3036 248.865 25.1251C248.651 24.9347 248.545 24.667 248.545 24.3219V19.9311C248.545 19.2766 248.426 18.8126 248.189 18.5389C247.964 18.2533 247.615 18.1105 247.141 18.1105C246.56 18.1105 246.098 18.3128 245.754 18.7174C245.423 19.1101 245.257 19.6515 245.257 20.3416V24.3219C245.257 24.667 245.15 24.9347 244.937 25.1251C244.724 25.3036 244.457 25.3928 244.137 25.3928C243.817 25.3928 243.551 25.3036 243.337 25.1251C243.136 24.9347 243.035 24.667 243.035 24.3219V17.4144C243.035 17.0812 243.142 16.8254 243.355 16.6469C243.569 16.4684 243.835 16.3792 244.155 16.3792C244.463 16.3792 244.712 16.4684 244.901 16.6469C245.103 16.8135 245.204 17.0574 245.204 17.3787V17.8071C245.476 17.3311 245.837 16.9682 246.288 16.7183C246.75 16.4684 247.277 16.3435 247.869 16.3435C249.173 16.3435 250.043 16.8909 250.482 17.9856C250.743 17.4858 251.128 17.0872 251.637 16.7897C252.147 16.4922 252.721 16.3435 253.361 16.3435Z" fill="white"/>
<path d="M259.298 25.3928C258.978 25.3928 258.711 25.3036 258.498 25.1251C258.296 24.9347 258.196 24.667 258.196 24.3219V17.4323C258.196 17.0872 258.296 16.8254 258.498 16.6469C258.711 16.4684 258.978 16.3792 259.298 16.3792C259.618 16.3792 259.884 16.4684 260.097 16.6469C260.311 16.8254 260.417 17.0872 260.417 17.4323V24.3219C260.417 24.667 260.311 24.9347 260.097 25.1251C259.884 25.3036 259.618 25.3928 259.298 25.3928ZM259.298 14.7907C258.895 14.7907 258.575 14.6836 258.338 14.4694C258.101 14.2433 257.983 13.9518 257.983 13.5948C257.983 13.2378 258.101 12.9522 258.338 12.7381C258.575 12.5239 258.895 12.4168 259.298 12.4168C259.689 12.4168 260.003 12.5239 260.24 12.7381C260.488 12.9522 260.613 13.2378 260.613 13.5948C260.613 13.9518 260.494 14.2433 260.257 14.4694C260.02 14.6836 259.7 14.7907 259.298 14.7907Z" fill="white"/>
<path d="M270.084 23.5544C270.321 23.7805 270.439 24.0363 270.439 24.3219C270.439 24.5956 270.338 24.8395 270.137 25.0537C269.947 25.2679 269.722 25.375 269.462 25.375C269.201 25.375 268.958 25.2679 268.733 25.0537L264.574 21.2697V24.3219C264.574 24.667 264.468 24.9287 264.254 25.1072C264.041 25.2857 263.775 25.375 263.455 25.375C263.135 25.375 262.868 25.2857 262.655 25.1072C262.453 24.9287 262.353 24.667 262.353 24.3219V13.6662C262.353 13.3211 262.453 13.0593 262.655 12.8808C262.868 12.7024 263.135 12.6131 263.455 12.6131C263.775 12.6131 264.041 12.7024 264.254 12.8808C264.468 13.0593 264.574 13.3211 264.574 13.6662V20.3773L268.377 16.7183C268.591 16.5041 268.834 16.397 269.106 16.397C269.379 16.397 269.616 16.4982 269.817 16.7005C270.018 16.9028 270.119 17.1407 270.119 17.4144C270.119 17.6881 270.007 17.938 269.781 18.1641L266.991 20.77L270.084 23.5544Z" fill="white"/>
<path d="M57.2853 45.2247C56.9417 45.2247 56.6633 45.1236 56.45 44.9213C56.2486 44.7071 56.1479 44.4215 56.1479 44.0646V33.6231C56.1479 33.278 56.2427 33.0103 56.4322 32.8199C56.6337 32.6295 56.9062 32.5343 57.2498 32.5343H61.6217C62.9605 32.5343 64.0031 32.8734 64.7496 33.5517C65.496 34.218 65.8692 35.1581 65.8692 36.3718C65.8692 37.5855 65.496 38.5315 64.7496 39.2097C64.0031 39.888 62.9605 40.2271 61.6217 40.2271H58.4405V44.0646C58.4405 44.4215 58.3339 44.7071 58.1206 44.9213C57.9192 45.1236 57.6407 45.2247 57.2853 45.2247ZM61.3373 38.4601C62.9131 38.4601 63.701 37.7699 63.701 36.3896C63.701 35.0093 62.9131 34.3192 61.3373 34.3192H58.4405V38.4601H61.3373Z" fill="white"/>
<path d="M70.9801 45.2604C70.0915 45.2604 69.3095 45.076 68.6342 44.7071C67.9707 44.3382 67.4553 43.8087 67.088 43.1186C66.7207 42.4284 66.537 41.6252 66.537 40.709C66.537 39.7928 66.7207 38.9955 67.088 38.3173C67.4553 37.6271 67.9707 37.0976 68.6342 36.7287C69.3095 36.3599 70.0915 36.1754 70.9801 36.1754C71.8687 36.1754 72.6447 36.3599 73.3082 36.7287C73.9836 37.0976 74.4989 37.6271 74.8544 38.3173C75.2217 38.9955 75.4053 39.7928 75.4053 40.709C75.4053 41.6252 75.2217 42.4284 74.8544 43.1186C74.4989 43.8087 73.9836 44.3382 73.3082 44.7071C72.6447 45.076 71.8687 45.2604 70.9801 45.2604ZM70.9623 43.5291C71.685 43.5291 72.236 43.2911 72.6151 42.8152C72.9942 42.3392 73.1838 41.6371 73.1838 40.709C73.1838 39.7928 72.9942 39.0967 72.6151 38.6207C72.236 38.1328 71.6909 37.8889 70.9801 37.8889C70.2692 37.8889 69.7183 38.1328 69.3273 38.6207C68.9481 39.0967 68.7586 39.7928 68.7586 40.709C68.7586 41.6371 68.9481 42.3392 69.3273 42.8152C69.7064 43.2911 70.2514 43.5291 70.9623 43.5291Z" fill="white"/>
<path d="M77.9857 45.2247C77.6658 45.2247 77.3993 45.1355 77.186 44.957C76.9846 44.7666 76.8839 44.4989 76.8839 44.1538V33.4981C76.8839 33.153 76.9846 32.8913 77.186 32.7128C77.3993 32.5343 77.6658 32.445 77.9857 32.445C78.3056 32.445 78.5722 32.5343 78.7855 32.7128C78.9987 32.8913 79.1054 33.153 79.1054 33.4981V44.1538C79.1054 44.4989 78.9987 44.7666 78.7855 44.957C78.5722 45.1355 78.3056 45.2247 77.9857 45.2247Z" fill="white"/>
<path d="M82.1427 45.2247C81.8228 45.2247 81.5563 45.1355 81.343 44.957C81.1416 44.7666 81.0409 44.4989 81.0409 44.1538V37.2642C81.0409 36.9191 81.1416 36.6573 81.343 36.4789C81.5563 36.3004 81.8228 36.2111 82.1427 36.2111C82.4626 36.2111 82.7292 36.3004 82.9425 36.4789C83.1557 36.6573 83.2624 36.9191 83.2624 37.2642V44.1538C83.2624 44.4989 83.1557 44.7666 82.9425 44.957C82.7292 45.1355 82.4626 45.2247 82.1427 45.2247ZM82.1427 34.6226C81.7399 34.6226 81.42 34.5155 81.183 34.3013C80.9461 34.0752 80.8276 33.7837 80.8276 33.4267C80.8276 33.0697 80.9461 32.7842 81.183 32.57C81.42 32.3558 81.7399 32.2487 82.1427 32.2487C82.5337 32.2487 82.8477 32.3558 83.0847 32.57C83.3335 32.7842 83.4579 33.0697 83.4579 33.4267C83.4579 33.7837 83.3394 34.0752 83.1024 34.3013C82.8655 34.5155 82.5456 34.6226 82.1427 34.6226Z" fill="white"/>
<path d="M89.712 43.5648C90.3044 43.6005 90.6006 43.8682 90.6006 44.368C90.6006 44.6536 90.4821 44.8737 90.2451 45.0284C90.02 45.1712 89.6942 45.2307 89.2677 45.2069L88.7878 45.1712C86.7973 45.0284 85.8021 43.9575 85.8021 41.9584V38.0674H84.9135C84.5936 38.0674 84.3448 37.996 84.1671 37.8532C84.0012 37.7104 83.9183 37.5022 83.9183 37.2285C83.9183 36.9548 84.0012 36.7466 84.1671 36.6038C84.3448 36.461 84.5936 36.3896 84.9135 36.3896H85.8021V34.7475C85.8021 34.4263 85.9028 34.1704 86.1042 33.98C86.3057 33.7896 86.5782 33.6945 86.9218 33.6945C87.2535 33.6945 87.5201 33.7896 87.7215 33.98C87.9229 34.1704 88.0236 34.4263 88.0236 34.7475V36.3896H89.5342C89.8541 36.3896 90.097 36.461 90.2629 36.6038C90.4406 36.7466 90.5295 36.9548 90.5295 37.2285C90.5295 37.5022 90.4406 37.7104 90.2629 37.8532C90.097 37.996 89.8541 38.0674 89.5342 38.0674H88.0236V42.1191C88.0236 42.9996 88.4265 43.4696 89.2321 43.5291L89.712 43.5648Z" fill="white"/>
<path d="M98.2806 42.7259C98.482 42.7259 98.642 42.8033 98.7605 42.9579C98.8908 43.1126 98.9559 43.3209 98.9559 43.5827C98.9559 43.9515 98.7368 44.2609 98.2984 44.5108C97.8955 44.7369 97.4394 44.9213 96.9299 45.0641C96.4205 45.195 95.9347 45.2604 95.4726 45.2604C94.0746 45.2604 92.9668 44.8559 92.1492 44.0467C91.3317 43.2376 90.923 42.131 90.923 40.7269C90.923 39.8344 91.1007 39.0431 91.4561 38.353C91.8116 37.6628 92.3092 37.1274 92.949 36.7466C93.6006 36.3658 94.3352 36.1754 95.1527 36.1754C95.9347 36.1754 96.616 36.348 97.1965 36.693C97.7771 37.0381 98.2273 37.526 98.5472 38.1566C98.8671 38.7873 99.027 39.531 99.027 40.3877C99.027 40.8994 98.8019 41.1552 98.3517 41.1552H93.1089C93.18 41.9763 93.4111 42.5831 93.802 42.9758C94.193 43.3566 94.7617 43.547 95.5082 43.547C95.8873 43.547 96.219 43.4994 96.5034 43.4042C96.7996 43.309 97.1313 43.1781 97.4986 43.0115C97.8541 42.8211 98.1147 42.7259 98.2806 42.7259ZM95.206 37.7461C94.6018 37.7461 94.116 37.9365 93.7487 38.3173C93.3933 38.698 93.18 39.2454 93.1089 39.9594H97.1254C97.1017 39.2335 96.924 38.6861 96.5923 38.3173C96.2605 37.9365 95.7984 37.7461 95.206 37.7461Z" fill="white"/>
<path d="M108.22 43.3863C108.457 43.6124 108.575 43.8682 108.575 44.1538C108.575 44.4275 108.474 44.6714 108.273 44.8856C108.083 45.0998 107.858 45.2069 107.598 45.2069C107.337 45.2069 107.094 45.0998 106.869 44.8856L102.71 41.1017V44.1538C102.71 44.4989 102.604 44.7607 102.39 44.9392C102.177 45.1176 101.911 45.2069 101.591 45.2069C101.271 45.2069 101.004 45.1176 100.791 44.9392C100.589 44.7607 100.489 44.4989 100.489 44.1538V33.4981C100.489 33.153 100.589 32.8913 100.791 32.7128C101.004 32.5343 101.271 32.445 101.591 32.445C101.911 32.445 102.177 32.5343 102.39 32.7128C102.604 32.8913 102.71 33.153 102.71 33.4981V40.2092L106.514 36.5503C106.727 36.3361 106.97 36.229 107.242 36.229C107.515 36.229 107.752 36.3301 107.953 36.5324C108.154 36.7347 108.255 36.9727 108.255 37.2464C108.255 37.52 108.143 37.7699 107.918 37.996L105.127 40.6019L108.22 43.3863Z" fill="white"/>
<path d="M114.709 36.1754C115.751 36.1754 116.527 36.4729 117.037 37.0679C117.546 37.6628 117.801 38.5612 117.801 39.763V44.1538C117.801 44.487 117.7 44.7488 117.499 44.9392C117.309 45.1295 117.043 45.2247 116.699 45.2247C116.356 45.2247 116.083 45.1295 115.882 44.9392C115.68 44.7488 115.58 44.487 115.58 44.1538V39.888C115.58 39.2097 115.449 38.7159 115.189 38.4065C114.94 38.0971 114.543 37.9425 113.998 37.9425C113.358 37.9425 112.843 38.1447 112.452 38.5493C112.073 38.9539 111.883 39.4953 111.883 40.1735V44.1538C111.883 44.487 111.782 44.7488 111.581 44.9392C111.38 45.1295 111.107 45.2247 110.763 45.2247C110.42 45.2247 110.147 45.1295 109.946 44.9392C109.756 44.7488 109.662 44.487 109.662 44.1538V37.2464C109.662 36.937 109.762 36.6871 109.964 36.4967C110.165 36.3063 110.438 36.2111 110.781 36.2111C111.089 36.2111 111.338 36.3063 111.528 36.4967C111.729 36.6752 111.83 36.9132 111.83 37.2107V37.6926C112.126 37.2047 112.523 36.8299 113.02 36.5681C113.518 36.3063 114.081 36.1754 114.709 36.1754Z" fill="white"/>
<path d="M120.804 45.2247C120.484 45.2247 120.217 45.1355 120.004 44.957C119.803 44.7666 119.702 44.4989 119.702 44.1538V37.2642C119.702 36.9191 119.803 36.6573 120.004 36.4789C120.217 36.3004 120.484 36.2111 120.804 36.2111C121.124 36.2111 121.39 36.3004 121.604 36.4789C121.817 36.6573 121.924 36.9191 121.924 37.2642V44.1538C121.924 44.4989 121.817 44.7666 121.604 44.957C121.39 45.1355 121.124 45.2247 120.804 45.2247ZM120.804 34.6226C120.401 34.6226 120.081 34.5155 119.844 34.3013C119.607 34.0752 119.489 33.7837 119.489 33.4267C119.489 33.0697 119.607 32.7842 119.844 32.57C120.081 32.3558 120.401 32.2487 120.804 32.2487C121.195 32.2487 121.509 32.3558 121.746 32.57C121.995 32.7842 122.119 33.0697 122.119 33.4267C122.119 33.7837 122.001 34.0752 121.764 34.3013C121.527 34.5155 121.207 34.6226 120.804 34.6226Z" fill="white"/>
<path d="M131.59 43.3863C131.827 43.6124 131.945 43.8682 131.945 44.1538C131.945 44.4275 131.845 44.6714 131.643 44.8856C131.454 45.0998 131.229 45.2069 130.968 45.2069C130.707 45.2069 130.464 45.0998 130.239 44.8856L126.081 41.1017V44.1538C126.081 44.4989 125.974 44.7607 125.761 44.9392C125.547 45.1176 125.281 45.2069 124.961 45.2069C124.641 45.2069 124.374 45.1176 124.161 44.9392C123.96 44.7607 123.859 44.4989 123.859 44.1538V33.4981C123.859 33.153 123.96 32.8913 124.161 32.7128C124.374 32.5343 124.641 32.445 124.961 32.445C125.281 32.445 125.547 32.5343 125.761 32.7128C125.974 32.8913 126.081 33.153 126.081 33.4981V40.2092L129.884 36.5503C130.097 36.3361 130.34 36.229 130.612 36.229C130.885 36.229 131.122 36.3301 131.323 36.5324C131.525 36.7347 131.625 36.9727 131.625 37.2464C131.625 37.52 131.513 37.7699 131.288 37.996L128.498 40.6019L131.59 43.3863Z" fill="white"/>
<path d="M147.187 32.445C147.519 32.445 147.779 32.5521 147.969 32.7663C148.17 32.9686 148.271 33.2423 148.271 33.5874V44.0646C148.271 44.4096 148.17 44.6893 147.969 44.9035C147.768 45.1176 147.507 45.2247 147.187 45.2247C146.808 45.2247 146.518 45.0879 146.316 44.8142L139.829 36.3361V44.0646C139.829 44.4096 139.735 44.6893 139.545 44.9035C139.355 45.1176 139.095 45.2247 138.763 45.2247C138.431 45.2247 138.171 45.1176 137.981 44.9035C137.791 44.6893 137.697 44.4096 137.697 44.0646V33.5874C137.697 33.2423 137.797 32.9686 137.999 32.7663C138.2 32.5521 138.467 32.445 138.799 32.445C139.166 32.445 139.45 32.5819 139.652 32.8556L146.121 41.298V33.5874C146.121 33.2423 146.215 32.9686 146.405 32.7663C146.606 32.5521 146.867 32.445 147.187 32.445Z" fill="white"/>
<path d="M157.301 42.7259C157.502 42.7259 157.662 42.8033 157.78 42.9579C157.911 43.1126 157.976 43.3209 157.976 43.5827C157.976 43.9515 157.757 44.2609 157.318 44.5108C156.915 44.7369 156.459 44.9213 155.95 45.0641C155.44 45.195 154.955 45.2604 154.493 45.2604C153.094 45.2604 151.987 44.8559 151.169 44.0467C150.352 43.2376 149.943 42.131 149.943 40.7269C149.943 39.8344 150.121 39.0431 150.476 38.353C150.832 37.6628 151.329 37.1274 151.969 36.7466C152.621 36.3658 153.355 36.1754 154.173 36.1754C154.955 36.1754 155.636 36.348 156.216 36.693C156.797 37.0381 157.247 37.526 157.567 38.1566C157.887 38.7873 158.047 39.531 158.047 40.3877C158.047 40.8994 157.822 41.1552 157.372 41.1552H152.129C152.2 41.9763 152.431 42.5831 152.822 42.9758C153.213 43.3566 153.782 43.547 154.528 43.547C154.907 43.547 155.239 43.4994 155.523 43.4042C155.82 43.309 156.151 43.1781 156.519 43.0115C156.874 42.8211 157.135 42.7259 157.301 42.7259ZM154.226 37.7461C153.622 37.7461 153.136 37.9365 152.769 38.3173C152.413 38.698 152.2 39.2454 152.129 39.9594H156.145C156.122 39.2335 155.944 38.6861 155.612 38.3173C155.28 37.9365 154.818 37.7461 154.226 37.7461Z" fill="white"/>
<path d="M166.866 36.2111C167.198 36.2111 167.465 36.3063 167.666 36.4967C167.868 36.6871 167.968 36.9429 167.968 37.2642V44.3145C167.968 45.6829 167.589 46.7181 166.831 47.4201C166.073 48.1222 164.953 48.4732 163.472 48.4732C162.18 48.4732 161.102 48.2293 160.237 47.7414C159.799 47.4796 159.58 47.1643 159.58 46.7954C159.58 46.5336 159.639 46.3254 159.758 46.1707C159.888 46.016 160.054 45.9387 160.255 45.9387C160.362 45.9387 160.492 45.9625 160.646 46.0101C160.8 46.0696 160.96 46.135 161.126 46.2064C161.553 46.3849 161.932 46.5217 162.263 46.6169C162.607 46.7121 162.998 46.7597 163.436 46.7597C164.988 46.7597 165.764 45.9982 165.764 44.4751V43.3328C165.504 43.8206 165.125 44.2014 164.627 44.4751C164.129 44.7369 163.561 44.8678 162.921 44.8678C162.163 44.8678 161.487 44.6893 160.895 44.3323C160.314 43.9634 159.858 43.4518 159.526 42.7973C159.195 42.1429 159.029 41.3873 159.029 40.5305C159.029 39.6738 159.189 38.9182 159.509 38.2637C159.84 37.5974 160.303 37.0857 160.895 36.7287C161.487 36.3599 162.163 36.1754 162.921 36.1754C163.561 36.1754 164.129 36.3123 164.627 36.5859C165.125 36.8477 165.504 37.2226 165.764 37.7104V37.2464C165.764 36.937 165.865 36.6871 166.067 36.4967C166.268 36.3063 166.535 36.2111 166.866 36.2111ZM163.507 43.1364C164.218 43.1364 164.769 42.9044 165.16 42.4403C165.563 41.9763 165.764 41.3397 165.764 40.5305C165.764 39.7095 165.563 39.0669 165.16 38.6029C164.769 38.1388 164.218 37.9068 163.507 37.9068C162.808 37.9068 162.257 38.1388 161.855 38.6029C161.452 39.0669 161.25 39.7095 161.25 40.5305C161.25 41.3397 161.452 41.9763 161.855 42.4403C162.257 42.9044 162.808 43.1364 163.507 43.1364Z" fill="white"/>
<path d="M176.791 42.7259C176.993 42.7259 177.153 42.8033 177.271 42.9579C177.402 43.1126 177.467 43.3209 177.467 43.5827C177.467 43.9515 177.248 44.2609 176.809 44.5108C176.406 44.7369 175.95 44.9213 175.441 45.0641C174.931 45.195 174.446 45.2604 173.984 45.2604C172.585 45.2604 171.478 44.8559 170.66 44.0467C169.843 43.2376 169.434 42.131 169.434 40.7269C169.434 39.8344 169.612 39.0431 169.967 38.353C170.322 37.6628 170.82 37.1274 171.46 36.7466C172.112 36.3658 172.846 36.1754 173.664 36.1754C174.446 36.1754 175.127 36.348 175.707 36.693C176.288 37.0381 176.738 37.526 177.058 38.1566C177.378 38.7873 177.538 39.531 177.538 40.3877C177.538 40.8994 177.313 41.1552 176.863 41.1552H171.62C171.691 41.9763 171.922 42.5831 172.313 42.9758C172.704 43.3566 173.273 43.547 174.019 43.547C174.398 43.547 174.73 43.4994 175.014 43.4042C175.311 43.309 175.642 43.1781 176.01 43.0115C176.365 42.8211 176.626 42.7259 176.791 42.7259ZM173.717 37.7461C173.113 37.7461 172.627 37.9365 172.26 38.3173C171.904 38.698 171.691 39.2454 171.62 39.9594H175.636C175.613 39.2335 175.435 38.6861 175.103 38.3173C174.771 37.9365 174.309 37.7461 173.717 37.7461Z" fill="white"/>
<path d="M183.851 36.2111C184.16 36.1873 184.402 36.2528 184.58 36.4075C184.758 36.5622 184.847 36.7942 184.847 37.1036C184.847 37.4248 184.77 37.6628 184.616 37.8175C184.462 37.9722 184.183 38.0733 183.78 38.1209L183.247 38.1745C182.548 38.2459 182.033 38.4839 181.701 38.8884C181.381 39.293 181.221 39.7987 181.221 40.4056V44.1538C181.221 44.4989 181.115 44.7666 180.901 44.957C180.688 45.1355 180.421 45.2247 180.102 45.2247C179.782 45.2247 179.515 45.1355 179.302 44.957C179.1 44.7666 179 44.4989 179 44.1538V37.2464C179 36.9132 179.1 36.6573 179.302 36.4789C179.515 36.3004 179.776 36.2111 180.084 36.2111C180.392 36.2111 180.641 36.3004 180.83 36.4789C181.02 36.6454 181.115 36.8894 181.115 37.2107V37.9246C181.34 37.401 181.671 36.9965 182.11 36.7109C182.56 36.4253 183.058 36.2647 183.603 36.229L183.851 36.2111Z" fill="white"/>
<path d="M186.549 45.2247C186.23 45.2247 185.963 45.1355 185.75 44.957C185.548 44.7666 185.448 44.4989 185.448 44.1538V37.2642C185.448 36.9191 185.548 36.6573 185.75 36.4789C185.963 36.3004 186.23 36.2111 186.549 36.2111C186.869 36.2111 187.136 36.3004 187.349 36.4789C187.562 36.6573 187.669 36.9191 187.669 37.2642V44.1538C187.669 44.4989 187.562 44.7666 187.349 44.957C187.136 45.1355 186.869 45.2247 186.549 45.2247ZM186.549 34.6226C186.147 34.6226 185.827 34.5155 185.59 34.3013C185.353 34.0752 185.234 33.7837 185.234 33.4267C185.234 33.0697 185.353 32.7842 185.59 32.57C185.827 32.3558 186.147 32.2487 186.549 32.2487C186.94 32.2487 187.254 32.3558 187.491 32.57C187.74 32.7842 187.865 33.0697 187.865 33.4267C187.865 33.7837 187.746 34.0752 187.509 34.3013C187.272 34.5155 186.952 34.6226 186.549 34.6226Z" fill="white"/>
<path d="M198.606 45.2783C197.694 45.2783 196.829 45.1593 196.011 44.9213C195.206 44.6714 194.548 44.3382 194.038 43.9218C193.766 43.7195 193.63 43.4339 193.63 43.065C193.63 42.8152 193.701 42.601 193.843 42.4225C193.997 42.2321 194.175 42.1369 194.376 42.1369C194.589 42.1369 194.832 42.2202 195.105 42.3868C195.614 42.7557 196.147 43.0234 196.704 43.19C197.261 43.3566 197.877 43.4399 198.553 43.4399C199.417 43.4399 200.081 43.2911 200.543 42.9936C201.005 42.6843 201.236 42.238 201.236 41.655C201.236 41.2028 201.017 40.8577 200.579 40.6198C200.152 40.3699 199.435 40.1319 198.428 39.9058C197.386 39.6797 196.538 39.4179 195.887 39.1205C195.235 38.823 194.743 38.4422 194.412 37.9781C194.08 37.5141 193.914 36.9251 193.914 36.2111C193.914 35.4734 194.121 34.813 194.536 34.2299C194.951 33.6469 195.525 33.1947 196.26 32.8734C197.006 32.5402 197.842 32.3736 198.766 32.3736C200.46 32.3736 201.84 32.8258 202.907 33.7301C203.061 33.861 203.167 33.9919 203.227 34.1228C203.298 34.2418 203.333 34.3965 203.333 34.5869C203.333 34.8368 203.256 35.0569 203.102 35.2473C202.96 35.4258 202.788 35.515 202.587 35.515C202.468 35.515 202.356 35.4972 202.249 35.4615C202.154 35.4258 202.024 35.3603 201.858 35.2651C201.372 34.9082 200.898 34.6464 200.436 34.4798C199.986 34.3013 199.429 34.2121 198.766 34.2121C197.96 34.2121 197.32 34.3787 196.846 34.7118C196.384 35.0331 196.153 35.4853 196.153 36.0683C196.153 36.5562 196.361 36.931 196.775 37.1928C197.19 37.4546 197.895 37.6985 198.89 37.9246C199.945 38.1626 200.798 38.4303 201.449 38.7278C202.113 39.0134 202.616 39.3823 202.96 39.8344C203.315 40.2866 203.493 40.8518 203.493 41.5301C203.493 42.2678 203.286 42.9223 202.871 43.4934C202.468 44.0527 201.894 44.4929 201.147 44.8142C200.413 45.1236 199.566 45.2783 198.606 45.2783Z" fill="white"/>
<path d="M208.819 36.1754C210.028 36.1754 210.922 36.4789 211.503 37.0857C212.095 37.6807 212.392 38.591 212.392 39.8166V44.1717C212.392 44.4929 212.297 44.7488 212.107 44.9392C211.918 45.1176 211.657 45.2069 211.325 45.2069C211.017 45.2069 210.762 45.1117 210.561 44.9213C210.372 44.7309 210.277 44.481 210.277 44.1717V43.779C210.075 44.2431 209.755 44.606 209.317 44.8678C208.891 45.1295 208.393 45.2604 207.824 45.2604C207.244 45.2604 206.716 45.1414 206.242 44.9035C205.769 44.6655 205.395 44.3382 205.123 43.9218C204.85 43.5053 204.714 43.0412 204.714 42.5296C204.714 41.887 204.874 41.3813 205.194 41.0124C205.526 40.6436 206.059 40.3758 206.793 40.2092C207.528 40.0427 208.541 39.9594 209.832 39.9594H210.277V39.5488C210.277 38.9658 210.152 38.5434 209.904 38.2816C209.655 38.0079 209.252 37.8711 208.695 37.8711C208.351 37.8711 208.002 37.9246 207.646 38.0317C207.291 38.1269 206.87 38.2697 206.385 38.4601C206.077 38.6148 205.851 38.6921 205.709 38.6921C205.496 38.6921 205.318 38.6148 205.176 38.4601C205.046 38.3054 204.981 38.1031 204.981 37.8532C204.981 37.6509 205.028 37.4784 205.123 37.3356C205.229 37.1809 205.401 37.0381 205.638 36.9072C206.053 36.6811 206.545 36.5027 207.113 36.3718C207.694 36.2409 208.263 36.1754 208.819 36.1754ZM208.268 43.654C208.861 43.654 209.341 43.4577 209.708 43.065C210.087 42.6605 210.277 42.1429 210.277 41.5122V41.1374H209.957C209.163 41.1374 208.547 41.1731 208.109 41.2445C207.67 41.3159 207.356 41.4408 207.167 41.6193C206.977 41.7978 206.882 42.0417 206.882 42.3511C206.882 42.7319 207.013 43.0472 207.273 43.2971C207.546 43.5351 207.877 43.654 208.268 43.654Z" fill="white"/>
<path d="M224.619 36.1754C225.567 36.1754 226.29 36.461 226.788 37.0322C227.297 37.5914 227.552 38.5017 227.552 39.763V44.1538C227.552 44.4989 227.445 44.7666 227.232 44.957C227.031 45.1355 226.764 45.2247 226.432 45.2247C226.112 45.2247 225.846 45.1355 225.632 44.957C225.431 44.7666 225.33 44.4989 225.33 44.1538V39.763C225.33 39.1086 225.212 38.6445 224.975 38.3708C224.75 38.0852 224.4 37.9425 223.926 37.9425C223.346 37.9425 222.884 38.1447 222.54 38.5493C222.197 38.942 222.025 39.4834 222.025 40.1735V44.1538C222.025 44.4989 221.918 44.7666 221.705 44.957C221.503 45.1355 221.243 45.2247 220.923 45.2247C220.603 45.2247 220.336 45.1355 220.123 44.957C219.91 44.7666 219.803 44.4989 219.803 44.1538V39.763C219.803 39.1086 219.685 38.6445 219.448 38.3708C219.223 38.0852 218.873 37.9425 218.399 37.9425C217.819 37.9425 217.357 38.1447 217.013 38.5493C216.681 38.942 216.515 39.4834 216.515 40.1735V44.1538C216.515 44.4989 216.409 44.7666 216.196 44.957C215.982 45.1355 215.716 45.2247 215.396 45.2247C215.076 45.2247 214.809 45.1355 214.596 44.957C214.395 44.7666 214.294 44.4989 214.294 44.1538V37.2464C214.294 36.9132 214.401 36.6573 214.614 36.4789C214.827 36.3004 215.094 36.2111 215.414 36.2111C215.722 36.2111 215.97 36.3004 216.16 36.4789C216.361 36.6454 216.462 36.8894 216.462 37.2107V37.639C216.735 37.1631 217.096 36.8001 217.546 36.5503C218.008 36.3004 218.535 36.1754 219.128 36.1754C220.431 36.1754 221.302 36.7228 221.74 37.8175C222.001 37.3177 222.386 36.9191 222.896 36.6216C223.405 36.3242 223.98 36.1754 224.619 36.1754Z" fill="white"/>
<path d="M233.222 36.1754C234.43 36.1754 235.325 36.4789 235.906 37.0857C236.498 37.6807 236.794 38.591 236.794 39.8166V44.1717C236.794 44.4929 236.699 44.7488 236.51 44.9392C236.32 45.1176 236.06 45.2069 235.728 45.2069C235.42 45.2069 235.165 45.1117 234.964 44.9213C234.774 44.7309 234.679 44.481 234.679 44.1717V43.779C234.478 44.2431 234.158 44.606 233.72 44.8678C233.293 45.1295 232.795 45.2604 232.227 45.2604C231.646 45.2604 231.119 45.1414 230.645 44.9035C230.171 44.6655 229.798 44.3382 229.525 43.9218C229.253 43.5053 229.117 43.0412 229.117 42.5296C229.117 41.887 229.277 41.3813 229.596 41.0124C229.928 40.6436 230.461 40.3758 231.196 40.2092C231.931 40.0427 232.944 39.9594 234.235 39.9594H234.679V39.5488C234.679 38.9658 234.555 38.5434 234.306 38.2816C234.057 38.0079 233.654 37.8711 233.098 37.8711C232.754 37.8711 232.404 37.9246 232.049 38.0317C231.694 38.1269 231.273 38.2697 230.787 38.4601C230.479 38.6148 230.254 38.6921 230.112 38.6921C229.899 38.6921 229.721 38.6148 229.579 38.4601C229.448 38.3054 229.383 38.1031 229.383 37.8532C229.383 37.6509 229.431 37.4784 229.525 37.3356C229.632 37.1809 229.804 37.0381 230.041 36.9072C230.455 36.6811 230.947 36.5027 231.516 36.3718C232.096 36.2409 232.665 36.1754 233.222 36.1754ZM232.671 43.654C233.263 43.654 233.743 43.4577 234.111 43.065C234.49 42.6605 234.679 42.1429 234.679 41.5122V41.1374H234.359C233.566 41.1374 232.949 41.1731 232.511 41.2445C232.073 41.3159 231.759 41.4408 231.569 41.6193C231.38 41.7978 231.285 42.0417 231.285 42.3511C231.285 42.7319 231.415 43.0472 231.676 43.2971C231.948 43.5351 232.28 43.654 232.671 43.654Z" fill="white"/>
<path d="M243.548 36.2111C243.856 36.1873 244.099 36.2528 244.277 36.4075C244.455 36.5622 244.543 36.7942 244.543 37.1036C244.543 37.4248 244.466 37.6628 244.312 37.8175C244.158 37.9722 243.88 38.0733 243.477 38.1209L242.944 38.1745C242.245 38.2459 241.73 38.4839 241.398 38.8884C241.078 39.293 240.918 39.7987 240.918 40.4056V44.1538C240.918 44.4989 240.811 44.7666 240.598 44.957C240.385 45.1355 240.118 45.2247 239.798 45.2247C239.478 45.2247 239.212 45.1355 238.999 44.957C238.797 44.7666 238.696 44.4989 238.696 44.1538V37.2464C238.696 36.9132 238.797 36.6573 238.999 36.4789C239.212 36.3004 239.473 36.2111 239.781 36.2111C240.089 36.2111 240.337 36.3004 240.527 36.4789C240.717 36.6454 240.811 36.8894 240.811 37.2107V37.9246C241.036 37.401 241.368 36.9965 241.807 36.7109C242.257 36.4253 242.754 36.2647 243.299 36.229L243.548 36.2111Z" fill="white"/>
<path d="M246.246 45.2247C245.926 45.2247 245.66 45.1355 245.447 44.957C245.245 44.7666 245.144 44.4989 245.144 44.1538V37.2642C245.144 36.9191 245.245 36.6573 245.447 36.4789C245.66 36.3004 245.926 36.2111 246.246 36.2111C246.566 36.2111 246.833 36.3004 247.046 36.4789C247.259 36.6573 247.366 36.9191 247.366 37.2642V44.1538C247.366 44.4989 247.259 44.7666 247.046 44.957C246.833 45.1355 246.566 45.2247 246.246 45.2247ZM246.246 34.6226C245.843 34.6226 245.524 34.5155 245.287 34.3013C245.05 34.0752 244.931 33.7837 244.931 33.4267C244.931 33.0697 245.05 32.7842 245.287 32.57C245.524 32.3558 245.843 32.2487 246.246 32.2487C246.637 32.2487 246.951 32.3558 247.188 32.57C247.437 32.7842 247.561 33.0697 247.561 33.4267C247.561 33.7837 247.443 34.0752 247.206 34.3013C246.969 34.5155 246.649 34.6226 246.246 34.6226Z" fill="white"/>
<path d="M254.349 36.1754C255.391 36.1754 256.167 36.4729 256.677 37.0679C257.186 37.6628 257.441 38.5612 257.441 39.763V44.1538C257.441 44.487 257.34 44.7488 257.139 44.9392C256.949 45.1295 256.683 45.2247 256.339 45.2247C255.996 45.2247 255.723 45.1295 255.522 44.9392C255.32 44.7488 255.219 44.487 255.219 44.1538V39.888C255.219 39.2097 255.089 38.7159 254.829 38.4065C254.58 38.0971 254.183 37.9425 253.638 37.9425C252.998 37.9425 252.483 38.1447 252.092 38.5493C251.712 38.9539 251.523 39.4953 251.523 40.1735V44.1538C251.523 44.487 251.422 44.7488 251.221 44.9392C251.019 45.1295 250.747 45.2247 250.403 45.2247C250.06 45.2247 249.787 45.1295 249.586 44.9392C249.396 44.7488 249.301 44.487 249.301 44.1538V37.2464C249.301 36.937 249.402 36.6871 249.604 36.4967C249.805 36.3063 250.077 36.2111 250.421 36.2111C250.729 36.2111 250.978 36.3063 251.167 36.4967C251.369 36.6752 251.47 36.9132 251.47 37.2107V37.6926C251.766 37.2047 252.163 36.8299 252.66 36.5681C253.158 36.3063 253.721 36.1754 254.349 36.1754Z" fill="white"/>
<path d="M266.593 32.445C266.925 32.445 267.197 32.5402 267.41 32.7306C267.624 32.921 267.73 33.1709 267.73 33.4803V44.1538C267.73 44.4751 267.63 44.7309 267.428 44.9213C267.227 45.1117 266.96 45.2069 266.628 45.2069C266.297 45.2069 266.03 45.1117 265.829 44.9213C265.627 44.7309 265.527 44.4751 265.527 44.1538V43.7076C265.266 44.1955 264.887 44.5762 264.389 44.8499C263.903 45.1236 263.347 45.2604 262.719 45.2604C261.972 45.2604 261.303 45.0701 260.71 44.6893C260.13 44.3085 259.674 43.773 259.342 43.0829C259.022 42.3808 258.862 41.5776 258.862 40.6733C258.862 39.769 259.022 38.9777 259.342 38.2994C259.674 37.6212 260.13 37.0976 260.71 36.7287C261.291 36.3599 261.96 36.1754 262.719 36.1754C263.347 36.1754 263.903 36.3063 264.389 36.5681C264.875 36.8299 265.248 37.1988 265.509 37.6747V33.4446C265.509 33.1471 265.604 32.9091 265.793 32.7306C265.995 32.5402 266.261 32.445 266.593 32.445ZM263.305 43.5291C264.016 43.5291 264.561 43.2852 264.94 42.7973C265.331 42.3094 265.527 41.6133 265.527 40.709C265.527 39.8047 265.331 39.1145 264.94 38.6386C264.561 38.1507 264.022 37.9068 263.323 37.9068C262.612 37.9068 262.061 38.1447 261.67 38.6207C261.279 39.0967 261.084 39.7809 261.084 40.6733C261.084 41.5776 261.279 42.2797 261.67 42.7795C262.061 43.2792 262.606 43.5291 263.305 43.5291Z" fill="white"/>
<path d="M273.428 36.1754C274.636 36.1754 275.531 36.4789 276.111 37.0857C276.704 37.6807 277 38.591 277 39.8166V44.1717C277 44.4929 276.905 44.7488 276.716 44.9392C276.526 45.1176 276.265 45.2069 275.934 45.2069C275.626 45.2069 275.371 45.1117 275.169 44.9213C274.98 44.7309 274.885 44.481 274.885 44.1717V43.779C274.684 44.2431 274.364 44.606 273.925 44.8678C273.499 45.1295 273.001 45.2604 272.433 45.2604C271.852 45.2604 271.325 45.1414 270.851 44.9035C270.377 44.6655 270.004 44.3382 269.731 43.9218C269.459 43.5053 269.322 43.0412 269.322 42.5296C269.322 41.887 269.482 41.3813 269.802 41.0124C270.134 40.6436 270.667 40.3758 271.402 40.2092C272.136 40.0427 273.149 39.9594 274.441 39.9594H274.885V39.5488C274.885 38.9658 274.761 38.5434 274.512 38.2816C274.263 38.0079 273.86 37.8711 273.303 37.8711C272.96 37.8711 272.61 37.9246 272.255 38.0317C271.899 38.1269 271.479 38.2697 270.993 38.4601C270.685 38.6148 270.46 38.6921 270.318 38.6921C270.104 38.6921 269.927 38.6148 269.785 38.4601C269.654 38.3054 269.589 38.1031 269.589 37.8532C269.589 37.6509 269.636 37.4784 269.731 37.3356C269.838 37.1809 270.01 37.0381 270.247 36.9072C270.661 36.6811 271.153 36.5027 271.722 36.3718C272.302 36.2409 272.871 36.1754 273.428 36.1754ZM272.877 43.654C273.469 43.654 273.949 43.4577 274.316 43.065C274.696 42.6605 274.885 42.1429 274.885 41.5122V41.1374H274.565C273.771 41.1374 273.155 41.1731 272.717 41.2445C272.279 41.3159 271.965 41.4408 271.775 41.6193C271.585 41.7978 271.491 42.0417 271.491 42.3511C271.491 42.7319 271.621 43.0472 271.882 43.2971C272.154 43.5351 272.486 43.654 272.877 43.654Z" fill="white"/>
</svg>
