<svg width="238" height="463" viewBox="0 0 238 463" fill="none" xmlns="http://www.w3.org/2000/svg">
<path fill-rule="evenodd" clip-rule="evenodd" d="M185.441 104.238C186.097 127.187 189.05 135.929 197.706 156.799C200.35 163.178 205.286 174.081 206.724 180.075C207.882 184.902 208.292 189.68 208.201 194.83C208.162 197.155 207.491 208.207 206.854 209.702C206.184 209.287 206.044 207.329 205.841 206.519C205.552 205.362 205.257 204.166 204.948 203.071C203.076 196.393 200.934 190.206 198.497 183.749C195.327 175.344 191.974 167.263 188.592 159.166C182.198 143.861 177.87 134.386 180.968 117.026C181.397 114.625 181.933 112.426 182.662 110.17C183.033 109.017 183.337 108.135 183.815 106.982L184.785 104.778C185.224 104.07 184.77 104.422 185.441 104.234V104.238ZM0.00965008 49.3055V42.6897C0.0434254 42.1351 0.0916758 41.624 0.154401 41.1707L0.405303 28.7395L8.46312 26.0873C9.2689 25.8221 9.78036 25.581 10.4945 25.3447L36.1299 16.8724C42.9573 14.5916 49.6786 12.7978 56.3565 10.7291C67.4686 7.28615 88.2934 2.7052 99.7818 1.40324C105.852 0.71851 113.239 -0.00479808 119.4 2.39785e-05C123.815 0.00484603 132.901 0.106109 137.137 0.704044C137.856 0.805307 138.797 0.93068 139.347 0.988545L142.001 10.1119C144.515 20.6336 145.171 31.5363 144.22 42.4148C142.078 66.9591 132.225 92.1206 120.829 113.015C118.011 118.184 115.318 123.17 112.303 128.079C111.256 129.786 103.656 142.101 103.56 142.853C104.081 142.656 106.31 140.163 106.788 139.608L111.434 134.535C113.408 132.182 117.359 128.218 119.386 125.836L128.631 115.252C136.336 106.158 144.216 96.3158 150.787 84.4776C164.297 60.1503 166.729 36.8357 154.865 11.1293C154.15 9.57662 153.403 8.20234 152.693 6.75572C151.984 5.30911 150.816 3.66961 150.348 2.36765C151.14 2.38694 152.495 2.71002 153.398 2.87879L162.324 4.66295C171.53 6.68821 178.864 8.8051 187.699 11.4138L194.473 13.5596C194.946 13.7188 195.101 13.8249 195.641 13.9792C202.324 15.9369 210.16 18.8494 216.852 21.1254L236.813 27.9342C237.214 28.0788 237.638 28.156 238 28.3296C238 33.2867 238 38.2389 238 43.196L236.813 78.8744C236.828 80.3355 236.63 80.9623 236.62 82.4475C236.606 84.7525 235.829 90.2303 235.824 92.7474C235.819 94.9077 235.361 97.3332 235.23 99.4838C235.163 100.569 234.965 101.895 234.864 102.883C234.733 104.123 234.729 104.962 234.598 106.186L232.191 125.783C231.901 127.794 231.602 130.133 231.259 132.187L225.658 163.453C222.323 180.234 217.194 198.944 210.55 214.755C210.15 215.71 209.802 216.452 209.416 217.388C208.77 218.955 204.287 228.874 203.462 229.703C203.747 225.031 204.143 221.636 203.747 216.775C202.869 205.945 199.211 194.483 195.433 184.632C194.801 182.978 180.235 147.656 179.496 146.841L179.844 155.193C180.124 157.927 180.476 160.69 180.896 163.323C185.142 189.733 196.973 213.94 184.36 239.323C179.94 248.215 175.955 254.011 169.272 260.516C157.152 272.311 137.142 280.258 114.238 273.917C104.279 271.159 96.993 266.573 90.4165 261.447L85.6011 257.136C84.9111 256.321 84.057 255.714 83.3092 254.87C81.051 252.319 79.2561 250.216 77.1379 247.362C76.2405 246.147 74.0161 242.405 73.3937 242.207C74.0113 247.342 79.4781 256.562 82.6916 260.637C94.8651 276.058 113.755 286.989 133.741 289.482C134.783 289.613 136.085 289.593 136.674 289.955L126.889 293.085C123.748 293.938 119.883 295.1 115.941 294.198C112.694 293.451 105.36 290.418 102.083 289.02C100.491 288.34 99.3042 287.718 97.7167 287.038C93.519 285.244 85.0172 280.2 81.3936 277.784L72.2357 271.082C70.3925 269.572 68.8871 268.463 67.0874 266.713C66.6483 266.284 66.5421 266.284 66.1031 265.917C65.7846 265.652 65.5916 265.43 65.3021 265.136C63.5747 263.385 60.81 261.109 58.8559 258.891L57.3649 257.208C54.4651 254.354 48.0622 246.094 46.0116 243.186C42.5665 238.306 40.2891 234.781 37.2783 229.52L33.9104 223.377C31.7005 219.582 27.4786 210.266 25.814 206.095C22.9286 198.862 21.5679 195.168 18.9672 187.371C17.3605 182.558 15.7682 174.944 14.4799 169.659C10.0554 151.562 6.87086 131.464 4.27981 112.86C3.85038 109.789 1.40409 87.6409 1.38961 84.034L0.984308 78.0932C0.940883 72.9529 0.197827 65.5944 0.197827 59.8514C0.197827 57.8261 0.303978 55.4971 0.197827 53.5056C0.135101 52.3193 0.0530755 50.8486 0 49.3007L0.00965008 49.3055ZM110.797 164.191C112.144 161.148 130.614 148.1 134.44 145.448C140.274 141.407 145.277 137.848 150.845 133.503C152.109 132.515 153.441 131.435 154.672 130.388L162.064 123.705C164.983 120.918 168.838 116.718 171.357 113.376C171.892 112.667 171.607 112.74 172.437 112.441C170.985 139.357 150.961 147.704 130.85 155.738C125.615 157.831 120.93 159.629 115.815 161.925C114.464 162.532 112.11 163.839 110.788 164.191H110.797ZM68.4287 221.009C68.1489 220.556 68.1441 219.751 68.1103 219.191C66.7062 194.247 77.6928 176.579 92.8048 158.351L113.21 136.72C116.375 133.576 119.425 130.61 122.59 127.461L145.132 103.809C146.522 102.078 147.965 100.569 149.427 98.7847C158.281 87.9591 164.558 76.7623 168.867 62.518C170.329 57.6814 171.612 52.6954 172.51 47.5262C173.311 42.926 174.083 37.9014 174.488 33.1999L174.681 31.6761C174.855 31.2566 174.652 31.5797 174.927 31.3048C176.206 33.0841 179.255 42.7813 180.032 45.636C186.42 69.1531 183.66 87.7855 169.48 106.736C166.98 110.078 161.079 116.617 157.875 119.515L150.015 126.521C148.206 127.953 146.517 129.395 144.684 130.904C136.114 137.945 125.977 145.289 117.094 152.285C115.241 153.742 113.572 155.183 111.724 156.63L103.922 163.304C88.7566 177.423 76.3032 192.053 70.4311 213.091C70.1416 214.128 68.7617 220.701 68.4336 221.009H68.4287ZM197.532 132.394L197.648 144.517C197.253 144.295 197.378 144.753 196.765 143.278C196.567 142.8 196.302 142.251 196.094 141.764L192.659 132.283C185.798 109.384 187.849 83.6241 207.226 68.343C212.712 64.0176 224.364 58.5928 231.264 58.0576C231.105 58.8484 228.9 60.9797 228.176 61.7271C225.527 64.4661 221.387 69.4328 218.652 72.4273C215.317 76.0776 209.426 83.7881 207.062 87.8C198.632 102.126 197.513 115.242 197.528 132.39L197.532 132.394Z" fill="#10C35D"/>
<path d="M42.5704 407.98C37.6834 407.98 33.0504 407.345 28.6712 406.076C24.3554 404.743 20.833 402.966 18.104 400.744C16.6442 399.665 15.9144 398.142 15.9144 396.175C15.9144 394.842 16.2952 393.7 17.0568 392.748C17.8818 391.732 18.8338 391.224 19.9128 391.224C21.0552 391.224 22.3562 391.669 23.816 392.557C26.545 394.525 29.401 395.953 32.384 396.841C35.3669 397.73 38.6672 398.174 42.2848 398.174C46.9178 398.174 50.472 397.381 52.9472 395.794C55.4224 394.144 56.66 391.764 56.66 388.654C56.66 386.242 55.4858 384.402 53.1376 383.132C50.8528 381.8 47.013 380.53 41.6184 379.324C36.0333 378.118 31.4954 376.722 28.0048 375.136C24.5141 373.549 21.8802 371.518 20.1032 369.043C18.3261 366.568 17.4376 363.426 17.4376 359.618C17.4376 355.683 18.5482 352.161 20.7696 349.051C22.9909 345.941 26.069 343.529 30.004 341.816C34.0024 340.038 38.4768 339.15 43.4272 339.15C52.5029 339.15 59.8968 341.562 65.6088 346.385C66.4338 347.083 67.005 347.781 67.3224 348.48C67.7032 349.114 67.8936 349.939 67.8936 350.955C67.8936 352.288 67.481 353.462 66.656 354.477C65.8944 355.429 64.9741 355.905 63.8952 355.905C63.2605 355.905 62.6576 355.81 62.0864 355.62C61.5786 355.429 60.8805 355.08 59.992 354.572C57.3898 352.668 54.8512 351.272 52.376 350.384C49.9642 349.432 46.9813 348.956 43.4272 348.956C39.1114 348.956 35.6842 349.844 33.1456 351.621C30.6704 353.335 29.4328 355.746 29.4328 358.856C29.4328 361.458 30.5434 363.458 32.7648 364.854C34.9861 366.25 38.7624 367.551 44.0936 368.757C49.7421 370.026 54.3117 371.454 57.8024 373.041C61.3565 374.564 64.0538 376.532 65.8944 378.944C67.7984 381.355 68.7504 384.37 68.7504 387.988C68.7504 391.922 67.6397 395.413 65.4184 398.46C63.2605 401.442 60.1824 403.791 56.184 405.504C52.249 407.154 47.7112 407.98 42.5704 407.98Z" fill="#10C35D"/>
<path d="M84.239 407.694C82.3984 407.694 80.907 407.123 79.7646 405.98C78.6856 404.838 78.1462 403.346 78.1462 401.506V345.624C78.1462 343.783 78.6856 342.323 79.7646 341.244C80.907 340.102 82.3984 339.531 84.239 339.531C86.143 339.531 87.6344 340.102 88.7134 341.244C89.8558 342.323 90.427 343.783 90.427 345.624V401.506C90.427 403.346 89.8558 404.838 88.7134 405.98C87.6344 407.123 86.143 407.694 84.239 407.694Z" fill="#10C35D"/>
<path d="M163.85 399.792C164.231 400.617 164.421 401.442 164.421 402.268C164.421 403.727 163.818 404.965 162.612 405.98C161.47 406.996 160.137 407.504 158.614 407.504C157.598 407.504 156.646 407.25 155.758 406.742C154.869 406.171 154.171 405.314 153.664 404.172L147.952 391.415H114.441L108.729 404.172C108.221 405.314 107.523 406.171 106.635 406.742C105.746 407.25 104.762 407.504 103.684 407.504C102.224 407.504 100.891 406.996 99.6852 405.98C98.4793 404.965 97.8764 403.727 97.8764 402.268C97.8764 401.442 98.0668 400.617 98.4476 399.792L124.723 343.339C125.294 342.069 126.151 341.117 127.293 340.483C128.499 339.785 129.768 339.436 131.101 339.436C132.434 339.436 133.672 339.785 134.814 340.483C136.02 341.117 136.908 342.069 137.48 343.339L163.85 399.792ZM118.63 381.895H143.763L131.196 353.62L118.63 381.895Z" fill="#10C35D"/>
<path d="M223.844 397.888C225.113 399.094 225.748 400.459 225.748 401.982C225.748 403.442 225.177 404.743 224.034 405.885C222.955 406.964 221.654 407.504 220.131 407.504C218.544 407.504 217.085 406.837 215.752 405.504L184.05 375.802V401.506C184.05 403.346 183.479 404.838 182.337 405.98C181.258 407.123 179.766 407.694 177.862 407.694C176.022 407.694 174.53 407.123 173.388 405.98C172.309 404.838 171.769 403.346 171.769 401.506V345.624C171.769 343.783 172.309 342.323 173.388 341.244C174.53 340.102 176.022 339.531 177.862 339.531C179.766 339.531 181.258 340.102 182.337 341.244C183.479 342.323 184.05 343.783 184.05 345.624V370.09L214.705 341.34C215.847 340.197 217.148 339.626 218.608 339.626C220.068 339.626 221.337 340.197 222.416 341.34C223.558 342.418 224.129 343.688 224.129 345.148C224.129 346.607 223.495 347.94 222.225 349.146L196.617 372.565L223.844 397.888Z" fill="#10C35D"/>
<path d="M13.3851 462.517C12.2348 462.517 11.3026 462.18 10.5886 461.506C9.91432 460.792 9.57715 459.84 9.57715 458.65V423.842C9.57715 422.692 9.89448 421.799 10.5291 421.165C11.2035 420.53 12.1158 420.213 13.2661 420.213H27.9031C32.3855 420.213 35.8762 421.343 38.3752 423.604C40.8742 425.826 42.1237 428.959 42.1237 433.005C42.1237 437.051 40.8742 440.205 38.3752 442.466C35.8762 444.727 32.3855 445.857 27.9031 445.857H17.2526V458.65C17.2526 459.84 16.8956 460.792 16.1816 461.506C15.5073 462.18 14.5751 462.517 13.3851 462.517ZM26.9512 439.967C32.2268 439.967 34.8647 437.666 34.8647 433.065C34.8647 428.463 32.2268 426.163 26.9512 426.163H17.2526V439.967H26.9512Z" fill="#10C35D"/>
<path d="M66.1751 462.696C62.0895 462.696 58.5393 461.823 55.5246 460.078C52.5496 458.332 50.249 455.833 48.6226 452.581C46.9963 449.328 46.1831 445.52 46.1831 441.157C46.1831 436.793 46.9765 433.005 48.5631 429.792C50.1895 426.54 52.51 424.041 55.5246 422.295C58.5393 420.55 62.0895 419.677 66.1751 419.677C70.2608 419.677 73.7911 420.55 76.7661 422.295C79.7808 424.041 82.0815 426.54 83.6681 429.792C85.2945 433.005 86.1076 436.793 86.1076 441.157C86.1076 445.52 85.2945 449.328 83.6681 452.581C82.0418 455.833 79.7213 458.332 76.7066 460.078C73.7316 461.823 70.2211 462.696 66.1751 462.696ZM66.1751 456.567C70.0228 456.567 73.0176 455.238 75.1596 452.581C77.3413 449.923 78.4321 446.115 78.4321 441.157C78.4321 436.198 77.3413 432.41 75.1596 429.792C73.0176 427.135 70.0228 425.806 66.1751 425.806C62.2878 425.806 59.2533 427.135 57.0716 429.792C54.9296 432.41 53.8586 436.198 53.8586 441.157C53.8586 446.115 54.9296 449.923 57.0716 452.581C59.2533 455.238 62.2878 456.567 66.1751 456.567Z" fill="#10C35D"/>
<path d="M96.2998 462.16C95.1495 462.16 94.257 461.843 93.6223 461.208C92.9876 460.574 92.6703 459.701 92.6703 458.59V423.723C92.6703 422.573 93.0075 421.661 93.6818 420.986C94.3958 420.272 95.328 419.915 96.4783 419.915C97.6683 419.915 98.6005 420.272 99.2748 420.986C99.9888 421.661 100.346 422.573 100.346 423.723V455.853H117.065C119.445 455.853 120.635 456.904 120.635 459.007C120.635 461.109 119.445 462.16 117.065 462.16H96.2998Z" fill="#10C35D"/>
<path d="M156.257 419.915C157.368 419.915 158.241 420.272 158.875 420.986C159.55 421.661 159.887 422.573 159.887 423.723V458.65C159.887 459.8 159.55 460.732 158.875 461.446C158.201 462.16 157.328 462.517 156.257 462.517C154.988 462.517 154.016 462.061 153.342 461.149L131.624 432.886V458.65C131.624 459.8 131.307 460.732 130.672 461.446C130.038 462.16 129.165 462.517 128.054 462.517C126.944 462.517 126.071 462.16 125.436 461.446C124.802 460.732 124.484 459.8 124.484 458.65V423.723C124.484 422.573 124.821 421.661 125.496 420.986C126.17 420.272 127.063 419.915 128.173 419.915C129.403 419.915 130.355 420.371 131.029 421.284L152.687 449.427V423.723C152.687 422.573 153.005 421.661 153.639 420.986C154.314 420.272 155.186 419.915 156.257 419.915Z" fill="#10C35D"/>
<path d="M171.434 462.16C170.284 462.16 169.371 461.843 168.697 461.208C168.062 460.574 167.745 459.681 167.745 458.531V423.842C167.745 422.692 168.062 421.799 168.697 421.165C169.371 420.53 170.284 420.213 171.434 420.213H192.913C194.064 420.213 194.956 420.471 195.591 420.986C196.226 421.502 196.543 422.236 196.543 423.188C196.543 424.179 196.226 424.953 195.591 425.508C194.956 426.024 194.064 426.282 192.913 426.282H175.242V437.825H191.723C192.874 437.825 193.766 438.083 194.401 438.598C195.036 439.114 195.353 439.868 195.353 440.859C195.353 441.811 195.036 442.545 194.401 443.061C193.766 443.576 192.874 443.834 191.723 443.834H175.242V456.091H192.913C194.064 456.091 194.956 456.369 195.591 456.924C196.226 457.44 196.543 458.194 196.543 459.185C196.543 460.137 196.226 460.871 195.591 461.387C194.956 461.902 194.064 462.16 192.913 462.16H171.434Z" fill="#10C35D"/>
<path d="M215.529 462.696C212.475 462.696 209.579 462.299 206.842 461.506C204.145 460.673 201.944 459.562 200.238 458.174C199.326 457.499 198.869 456.547 198.869 455.318C198.869 454.485 199.107 453.771 199.583 453.176C200.099 452.541 200.694 452.224 201.368 452.224C202.082 452.224 202.896 452.501 203.808 453.057C205.514 454.286 207.299 455.179 209.163 455.734C211.027 456.29 213.09 456.567 215.351 456.567C218.247 456.567 220.468 456.071 222.015 455.08C223.562 454.048 224.335 452.561 224.335 450.617C224.335 449.11 223.602 447.96 222.134 447.166C220.706 446.333 218.306 445.54 214.934 444.786C211.444 444.033 208.608 443.16 206.426 442.168C204.244 441.177 202.598 439.907 201.487 438.36C200.377 436.813 199.821 434.85 199.821 432.47C199.821 430.01 200.516 427.809 201.904 425.865C203.292 423.922 205.216 422.414 207.675 421.343C210.174 420.233 212.971 419.677 216.065 419.677C221.737 419.677 226.358 421.185 229.928 424.199C230.444 424.636 230.801 425.072 230.999 425.508C231.237 425.905 231.356 426.421 231.356 427.055C231.356 427.888 231.099 428.622 230.583 429.257C230.107 429.852 229.532 430.149 228.857 430.149C228.461 430.149 228.084 430.09 227.727 429.971C227.41 429.852 226.973 429.634 226.418 429.316C224.792 428.126 223.205 427.254 221.658 426.698C220.151 426.103 218.286 425.806 216.065 425.806C213.368 425.806 211.226 426.361 209.639 427.472C208.092 428.543 207.318 430.05 207.318 431.994C207.318 433.62 208.013 434.87 209.401 435.742C210.789 436.615 213.149 437.428 216.481 438.182C220.012 438.975 222.868 439.868 225.049 440.859C227.271 441.811 228.957 443.041 230.107 444.548C231.297 446.056 231.892 447.94 231.892 450.201C231.892 452.66 231.198 454.842 229.809 456.746C228.461 458.61 226.537 460.078 224.038 461.149C221.579 462.18 218.742 462.696 215.529 462.696Z" fill="#10C35D"/>
</svg>
